<svg width="395" height="415" viewBox="0 0 395 415" fill="none" xmlns="http://www.w3.org/2000/svg">
<g filter="url(#filter0_d_107_450)">
<path d="M166.5 402.5C130.5 402.5 104.333 396.167 88 383.5C71.6667 371.167 64.1667 348.333 65.5 315L67.5 265C67.5 241.333 63 225.5 54 217.5C45.3333 209.167 33.1667 205 17.5 205H12.5V184.5H22C35.6667 184.5 46.8333 180.333 55.5 172C64.1667 163.333 68.5 148.5 68.5 127.5L67.5 91.5C67.5 62.5 74.8333 40.8333 89.5 26.5C104.167 11.8333 125.5 4.49998 153.5 4.49998H180V25H144C128 25 115.333 30.3333 106 41C96.6667 51.3333 92 66.3333 92 86L93 121C93 139.333 89.8333 155 83.5 168C77.1667 180.667 66.8333 189.667 52.5 195C66.5 199.333 76.5 208 82.5 221C88.8333 234 92 251.167 92 272.5L90.5 314.5C90.5 340.833 95.6667 358.667 106 368C116.667 377.333 134.333 382 159 382H179.5V402.5H166.5ZM236.5 402.5H223.5V382H244C268.667 382 286.333 377.333 297 368C307.667 358.667 313 340.833 313 314.5L311 272.5C311 251.167 314 234 320 221C326.333 208 336.667 199.333 351 195C336.333 189.667 325.833 180.667 319.5 168C313.167 155 310 139.333 310 121L311 86C311 66.3333 306.333 51.3333 297 41C287.667 30.3333 275 25 259 25H223V4.49998H249.5C277.5 4.49998 298.833 11.8333 313.5 26.5C328.167 40.8333 335.5 62.5 335.5 91.5L334.5 127.5C334.5 148.5 338.833 163.333 347.5 172C356.167 180.333 367.333 184.5 381 184.5H390.5V205H385.5C370.167 205 358 209.167 349 217.5C340 225.5 335.5 241.333 335.5 265L337.5 315C338.833 348.333 331.333 371.167 315 383.5C298.667 396.167 272.5 402.5 236.5 402.5Z" fill="white" fill-opacity="0.9"/>
</g>
<defs>
<filter id="filter0_d_107_450" x="0.5" y="0.499969" width="394" height="414" filterUnits="userSpaceOnUse" color-interpolation-filters="sRGB">
<feFlood flood-opacity="0" result="BackgroundImageFix"/>
<feColorMatrix in="SourceAlpha" type="matrix" values="0 0 0 0 0 0 0 0 0 0 0 0 0 0 0 0 0 0 127 0" result="hardAlpha"/>
<feOffset dx="-4" dy="4"/>
<feGaussianBlur stdDeviation="4"/>
<feColorMatrix type="matrix" values="0 0 0 0 0.0627451 0 0 0 0 0.670588 0 0 0 0 0.760784 0 0 0 1 0"/>
<feBlend mode="normal" in2="BackgroundImageFix" result="effect1_dropShadow_107_450"/>
<feBlend mode="normal" in="SourceGraphic" in2="effect1_dropShadow_107_450" result="shape"/>
</filter>
</defs>
</svg>
