<svg width="532" height="196" viewBox="0 0 532 196" fill="none" xmlns="http://www.w3.org/2000/svg">
<g filter="url(#filter0_dd_71_44)">
<rect x="28" y="28" width="464" height="128" rx="20" fill="#00050B"/>
</g>
<path d="M63.38 83.5685V64.8485H68.03C69.13 64.8485 70.05 64.9485 70.79 65.1485C71.55 65.3485 72.19 65.6385 72.71 66.0185C73.25 66.3985 73.72 66.8685 74.12 67.4285C74.54 67.9885 74.89 68.6185 75.17 69.3185C75.47 70.0185 75.69 70.7885 75.83 71.6285C75.97 72.4485 76.04 73.3385 76.04 74.2985C76.02 75.7385 75.84 77.0285 75.5 78.1685C75.18 79.3085 74.68 80.2785 74 81.0785C73.34 81.8785 72.49 82.4985 71.45 82.9385C70.41 83.3585 69.15 83.5685 67.67 83.5685H63.38ZM66.23 81.2285H67.61C68.95 81.2285 70.02 80.9585 70.82 80.4185C71.64 79.8585 72.23 79.0685 72.59 78.0485C72.97 77.0085 73.16 75.7885 73.16 74.3885C73.16 72.9085 72.99 71.6385 72.65 70.5785C72.31 69.5185 71.76 68.6985 71 68.1185C70.26 67.5185 69.23 67.2185 67.91 67.2185H66.23V81.2285ZM85.13 83.8685C84.13 83.8685 83.21 83.7085 82.37 83.3885C81.53 83.0685 80.8 82.6085 80.18 82.0085C79.58 81.3885 79.11 80.6285 78.77 79.7285C78.43 78.8285 78.26 77.8085 78.26 76.6685C78.26 75.5085 78.43 74.4785 78.77 73.5785C79.11 72.6585 79.57 71.8885 80.15 71.2685C80.75 70.6485 81.44 70.1685 82.22 69.8285C83.02 69.4885 83.87 69.3185 84.77 69.3185C85.55 69.3185 86.29 69.4585 86.99 69.7385C87.71 70.0185 88.33 70.4385 88.85 70.9985C89.39 71.5385 89.81 72.2285 90.11 73.0685C90.43 73.9085 90.59 74.8885 90.59 76.0085C90.59 76.2085 90.59 76.4385 90.59 76.6985C90.59 76.9385 90.58 77.1485 90.56 77.3285H81.14C81.18 78.0485 81.32 78.6785 81.56 79.2185C81.8 79.7385 82.1 80.1685 82.46 80.5085C82.84 80.8485 83.27 81.0985 83.75 81.2585C84.23 81.4185 84.73 81.4985 85.25 81.4985C85.71 81.4985 86.13 81.4585 86.51 81.3785C86.91 81.2785 87.29 81.1285 87.65 80.9285C88.01 80.7285 88.34 80.4585 88.64 80.1185L90.2 81.6485C89.78 82.1485 89.31 82.5685 88.79 82.9085C88.27 83.2285 87.7 83.4685 87.08 83.6285C86.48 83.7885 85.83 83.8685 85.13 83.8685ZM81.2 75.0785H87.68C87.68 74.5185 87.61 74.0285 87.47 73.6085C87.33 73.1885 87.12 72.8285 86.84 72.5285C86.58 72.2285 86.26 72.0085 85.88 71.8685C85.5 71.7085 85.08 71.6285 84.62 71.6285C84.18 71.6285 83.77 71.6985 83.39 71.8385C83.03 71.9785 82.7 72.1885 82.4 72.4685C82.1 72.7485 81.84 73.1085 81.62 73.5485C81.42 73.9685 81.28 74.4785 81.2 75.0785ZM93.56 88.5485V69.6485H96.53V71.8685C96.79 71.2685 97.12 70.7885 97.52 70.4285C97.94 70.0485 98.4 69.7785 98.9 69.6185C99.4 69.4385 99.94 69.3485 100.52 69.3485C101.28 69.3485 101.99 69.5085 102.65 69.8285C103.33 70.1285 103.93 70.5785 104.45 71.1785C104.97 71.7785 105.38 72.5285 105.68 73.4285C105.98 74.3285 106.13 75.3785 106.13 76.5785C106.13 77.7985 105.97 78.8685 105.65 79.7885C105.33 80.7085 104.9 81.4785 104.36 82.0985C103.84 82.6985 103.24 83.1485 102.56 83.4485C101.88 83.7485 101.18 83.8985 100.46 83.8985C99.96 83.8985 99.46 83.8285 98.96 83.6885C98.48 83.5685 98.04 83.3785 97.64 83.1185C97.24 82.8385 96.89 82.5185 96.59 82.1585V88.5485H93.56ZM99.71 81.4985C100.17 81.4985 100.6 81.4185 101 81.2585C101.4 81.0785 101.76 80.8085 102.08 80.4485C102.4 80.0685 102.65 79.5585 102.83 78.9185C103.01 78.2585 103.1 77.4585 103.1 76.5185C103.1 75.5185 102.97 74.6685 102.71 73.9685C102.47 73.2685 102.11 72.7285 101.63 72.3485C101.17 71.9685 100.61 71.7685 99.95 71.7485C99.45 71.7285 98.99 71.8185 98.57 72.0185C98.15 72.1985 97.79 72.4985 97.49 72.9185C97.19 73.3185 96.96 73.8585 96.8 74.5385C96.66 75.1985 96.59 75.9885 96.59 76.9085C96.59 77.5285 96.63 78.0885 96.71 78.5885C96.81 79.0685 96.95 79.4985 97.13 79.8785C97.31 80.2385 97.52 80.5385 97.76 80.7785C98.02 81.0185 98.31 81.1985 98.63 81.3185C98.97 81.4385 99.33 81.4985 99.71 81.4985ZM109.04 83.5385V81.1685H113V65.8385H109.22V63.4685H116.03V81.1685H119.96V83.5385H109.04ZM129.5 83.8385C128.24 83.8385 127.12 83.5385 126.14 82.9385C125.16 82.3185 124.38 81.4685 123.8 80.3885C123.22 79.2885 122.93 78.0285 122.93 76.6085C122.93 75.2085 123.22 73.9685 123.8 72.8885C124.38 71.7885 125.16 70.9285 126.14 70.3085C127.12 69.6685 128.24 69.3485 129.5 69.3485C130.74 69.3485 131.85 69.6685 132.83 70.3085C133.83 70.9285 134.62 71.7885 135.2 72.8885C135.78 73.9685 136.07 75.2085 136.07 76.6085C136.07 78.0085 135.78 79.2585 135.2 80.3585C134.62 81.4385 133.83 82.2885 132.83 82.9085C131.85 83.5285 130.74 83.8385 129.5 83.8385ZM129.5 81.4085C130.18 81.4085 130.78 81.2085 131.3 80.8085C131.84 80.3885 132.26 79.8185 132.56 79.0985C132.86 78.3785 133.01 77.5385 133.01 76.5785C133.01 75.5985 132.86 74.7485 132.56 74.0285C132.26 73.3085 131.84 72.7485 131.3 72.3485C130.78 71.9485 130.18 71.7485 129.5 71.7485C128.82 71.7485 128.21 71.9485 127.67 72.3485C127.15 72.7485 126.74 73.3085 126.44 74.0285C126.14 74.7485 125.99 75.5985 125.99 76.5785C125.99 77.5385 126.14 78.3785 126.44 79.0985C126.74 79.8185 127.15 80.3885 127.67 80.8085C128.21 81.2085 128.82 81.4085 129.5 81.4085ZM140.78 88.7885C140.12 88.7885 139.53 88.6785 139.01 88.4585C138.49 88.2585 137.99 87.9485 137.51 87.5285L138.62 85.4885L138.77 85.2485L138.98 85.3685C139.04 85.5085 139.11 85.6385 139.19 85.7585C139.29 85.8985 139.48 86.0685 139.76 86.2685C139.92 86.3285 140.09 86.3685 140.27 86.3885C140.45 86.4285 140.63 86.4485 140.81 86.4485C141.27 86.4485 141.66 86.3285 141.98 86.0885C142.3 85.8685 142.58 85.5185 142.82 85.0385C143.08 84.5585 143.34 83.9385 143.6 83.1785L146.48 74.7785C146.78 73.8985 147.04 73.0485 147.26 72.2285C147.5 71.3885 147.65 70.5285 147.71 69.6485H150.53C150.45 70.5685 150.24 71.5185 149.9 72.4985C149.58 73.4785 149.25 74.4285 148.91 75.3485L145.46 84.8585C144.94 86.3185 144.29 87.3385 143.51 87.9185C142.73 88.4985 141.82 88.7885 140.78 88.7885ZM138.08 69.6485H141.11L145.31 80.5685L143.81 83.8685L138.08 69.6485Z" fill="white"/>
<path d="M62.918 116.78V106.172H65.383C65.995 106.172 66.5107 106.228 66.93 106.342C67.3493 106.455 67.7063 106.619 68.001 106.835C68.2957 107.039 68.5563 107.299 68.783 107.617C69.021 107.934 69.2137 108.291 69.361 108.688C69.5197 109.084 69.633 109.521 69.701 109.997C69.7803 110.461 69.82 110.971 69.82 111.527C69.786 112.343 69.6783 113.074 69.497 113.72C69.3157 114.366 69.0437 114.915 68.681 115.369C68.3183 115.822 67.848 116.173 67.27 116.423C66.7033 116.661 66.0063 116.78 65.179 116.78H62.918ZM64.04 115.845H65.128C65.944 115.845 66.607 115.68 67.117 115.352C67.6383 115.023 68.0237 114.541 68.273 113.907C68.5223 113.272 68.6413 112.501 68.63 111.595C68.63 110.665 68.5167 109.872 68.29 109.215C68.0633 108.557 67.7063 108.053 67.219 107.702C66.743 107.35 66.1083 107.175 65.315 107.175H64.04V115.845ZM75.124 116.933C74.5573 116.933 74.0417 116.848 73.577 116.678C73.1123 116.496 72.71 116.236 72.37 115.896C72.0413 115.556 71.7863 115.136 71.605 114.638C71.4237 114.128 71.333 113.55 71.333 112.904C71.333 112.246 71.4237 111.663 71.605 111.153C71.7977 110.643 72.0527 110.218 72.37 109.878C72.6987 109.526 73.0783 109.26 73.509 109.079C73.951 108.897 74.4157 108.807 74.903 108.807C75.345 108.807 75.7587 108.88 76.144 109.028C76.5293 109.175 76.8637 109.402 77.147 109.708C77.4303 110.002 77.6513 110.382 77.81 110.847C77.98 111.311 78.065 111.861 78.065 112.496C78.065 112.586 78.0593 112.683 78.048 112.785C78.048 112.875 78.0423 112.966 78.031 113.057H72.506C72.5287 113.555 72.6137 113.992 72.761 114.366C72.9083 114.728 73.101 115.029 73.339 115.267C73.577 115.493 73.849 115.663 74.155 115.777C74.4723 115.89 74.8067 115.947 75.158 115.947C75.43 115.947 75.685 115.918 75.923 115.862C76.161 115.794 76.382 115.697 76.586 115.573C76.8013 115.437 76.994 115.272 77.164 115.08L77.844 115.743C77.6287 116.003 77.3793 116.224 77.096 116.406C76.824 116.587 76.5237 116.717 76.195 116.797C75.8663 116.887 75.5093 116.933 75.124 116.933ZM72.557 112.105H76.824C76.824 111.742 76.773 111.419 76.671 111.136C76.5803 110.841 76.4443 110.592 76.263 110.388C76.093 110.172 75.8833 110.014 75.634 109.912C75.396 109.798 75.124 109.742 74.818 109.742C74.546 109.742 74.2853 109.787 74.036 109.878C73.798 109.968 73.577 110.116 73.373 110.32C73.169 110.512 72.9933 110.756 72.846 111.051C72.71 111.345 72.6137 111.697 72.557 112.105ZM80.02 119.602V108.994H81.261V110.524C81.3857 110.127 81.5613 109.804 81.788 109.555C82.026 109.305 82.298 109.124 82.604 109.011C82.9213 108.886 83.2613 108.824 83.624 108.824C84.0547 108.824 84.4627 108.909 84.848 109.079C85.2447 109.237 85.5903 109.481 85.885 109.81C86.191 110.138 86.429 110.552 86.599 111.051C86.7803 111.549 86.871 112.139 86.871 112.819C86.871 113.499 86.7747 114.099 86.582 114.621C86.4007 115.142 86.1513 115.578 85.834 115.93C85.528 116.27 85.1767 116.53 84.78 116.712C84.3947 116.882 83.998 116.967 83.59 116.967C83.284 116.967 82.9837 116.916 82.689 116.814C82.4057 116.723 82.145 116.587 81.907 116.406C81.669 116.213 81.4593 115.992 81.278 115.743V119.602H80.02ZM83.386 115.879C83.658 115.879 83.9243 115.833 84.185 115.743C84.4457 115.641 84.6837 115.476 84.899 115.25C85.1143 115.023 85.2843 114.717 85.409 114.332C85.5337 113.935 85.596 113.448 85.596 112.87C85.596 112.246 85.5167 111.719 85.358 111.289C85.1993 110.847 84.967 110.507 84.661 110.269C84.3663 110.031 84.0037 109.9 83.573 109.878C83.2557 109.855 82.9553 109.9 82.672 110.014C82.4 110.127 82.1563 110.314 81.941 110.575C81.7257 110.835 81.5557 111.181 81.431 111.612C81.3177 112.031 81.261 112.541 81.261 113.142C81.2723 113.504 81.312 113.833 81.38 114.128C81.448 114.422 81.5443 114.683 81.669 114.91C81.7937 115.125 81.941 115.306 82.111 115.454C82.281 115.59 82.4737 115.697 82.689 115.777C82.9043 115.845 83.1367 115.879 83.386 115.879ZM88.843 116.763V115.777H91.138V106.444H88.945V105.458H92.379V115.777H94.657V116.763H88.843ZM100.25 116.899C99.5473 116.899 98.924 116.729 98.38 116.389C97.8473 116.037 97.428 115.561 97.122 114.961C96.816 114.349 96.663 113.652 96.663 112.87C96.663 112.076 96.816 111.379 97.122 110.779C97.428 110.167 97.8473 109.691 98.38 109.351C98.924 108.999 99.5473 108.824 100.25 108.824C100.953 108.824 101.57 108.999 102.103 109.351C102.647 109.691 103.072 110.167 103.378 110.779C103.684 111.379 103.837 112.076 103.837 112.87C103.837 113.652 103.684 114.349 103.378 114.961C103.072 115.561 102.647 116.037 102.103 116.389C101.57 116.729 100.953 116.899 100.25 116.899ZM100.25 115.879C100.703 115.879 101.1 115.748 101.44 115.488C101.78 115.227 102.046 114.87 102.239 114.417C102.443 113.963 102.545 113.442 102.545 112.853C102.545 112.263 102.443 111.742 102.239 111.289C102.046 110.835 101.78 110.484 101.44 110.235C101.1 109.974 100.703 109.844 100.25 109.844C99.808 109.844 99.4113 109.974 99.06 110.235C98.72 110.484 98.448 110.835 98.244 111.289C98.0513 111.742 97.955 112.263 97.955 112.853C97.955 113.442 98.0513 113.963 98.244 114.417C98.448 114.87 98.72 115.227 99.06 115.488C99.4113 115.748 99.808 115.879 100.25 115.879ZM106.659 119.721C106.296 119.721 105.962 119.664 105.656 119.551C105.361 119.437 105.101 119.273 104.874 119.058L105.401 118.225L105.503 118.072L105.605 118.14C105.628 118.23 105.667 118.304 105.724 118.361C105.781 118.429 105.888 118.514 106.047 118.616C106.149 118.65 106.257 118.672 106.37 118.684C106.483 118.706 106.602 118.718 106.727 118.718C107.033 118.718 107.288 118.644 107.492 118.497C107.707 118.349 107.894 118.123 108.053 117.817C108.212 117.511 108.365 117.125 108.512 116.661L109.991 112.088C110.161 111.566 110.325 111.051 110.484 110.541C110.643 110.031 110.75 109.515 110.807 108.994H112.031C111.952 109.515 111.827 110.042 111.657 110.575C111.487 111.107 111.306 111.64 111.113 112.173L109.175 117.647C108.903 118.406 108.552 118.939 108.121 119.245C107.702 119.562 107.214 119.721 106.659 119.721ZM105.282 108.994H106.557L109.073 115.471L108.529 116.984L105.282 108.994ZM113.646 116.763V108.994H114.768V109.759C114.893 109.566 115.034 109.402 115.193 109.266C115.363 109.118 115.544 109.005 115.737 108.926C115.941 108.846 116.145 108.807 116.349 108.807C116.576 108.807 116.785 108.858 116.978 108.96C117.171 109.05 117.329 109.181 117.454 109.351C117.59 109.521 117.681 109.719 117.726 109.946C117.828 109.719 117.964 109.521 118.134 109.351C118.315 109.181 118.519 109.05 118.746 108.96C118.984 108.858 119.228 108.807 119.477 108.807C119.738 108.807 119.964 108.858 120.157 108.96C120.35 109.062 120.508 109.203 120.633 109.385C120.758 109.555 120.848 109.764 120.905 110.014C120.962 110.252 120.984 110.512 120.973 110.796V116.763H119.851V111.255C119.851 110.779 119.817 110.433 119.749 110.218C119.692 110.002 119.607 109.866 119.494 109.81C119.381 109.742 119.256 109.708 119.12 109.708C118.905 109.708 118.701 109.81 118.508 110.014C118.327 110.206 118.174 110.45 118.049 110.745C117.936 111.039 117.879 111.334 117.879 111.629V116.763H116.74V111.357C116.74 110.711 116.678 110.28 116.553 110.065C116.44 109.849 116.219 109.742 115.89 109.742C115.765 109.742 115.635 109.787 115.499 109.878C115.374 109.957 115.255 110.076 115.142 110.235C115.029 110.382 114.938 110.569 114.87 110.796C114.802 111.022 114.768 111.283 114.768 111.578V116.763H113.646ZM126.124 116.933C125.557 116.933 125.042 116.848 124.577 116.678C124.112 116.496 123.71 116.236 123.37 115.896C123.041 115.556 122.786 115.136 122.605 114.638C122.424 114.128 122.333 113.55 122.333 112.904C122.333 112.246 122.424 111.663 122.605 111.153C122.798 110.643 123.053 110.218 123.37 109.878C123.699 109.526 124.078 109.26 124.509 109.079C124.951 108.897 125.416 108.807 125.903 108.807C126.345 108.807 126.759 108.88 127.144 109.028C127.529 109.175 127.864 109.402 128.147 109.708C128.43 110.002 128.651 110.382 128.81 110.847C128.98 111.311 129.065 111.861 129.065 112.496C129.065 112.586 129.059 112.683 129.048 112.785C129.048 112.875 129.042 112.966 129.031 113.057H123.506C123.529 113.555 123.614 113.992 123.761 114.366C123.908 114.728 124.101 115.029 124.339 115.267C124.577 115.493 124.849 115.663 125.155 115.777C125.472 115.89 125.807 115.947 126.158 115.947C126.43 115.947 126.685 115.918 126.923 115.862C127.161 115.794 127.382 115.697 127.586 115.573C127.801 115.437 127.994 115.272 128.164 115.08L128.844 115.743C128.629 116.003 128.379 116.224 128.096 116.406C127.824 116.587 127.524 116.717 127.195 116.797C126.866 116.887 126.509 116.933 126.124 116.933ZM123.557 112.105H127.824C127.824 111.742 127.773 111.419 127.671 111.136C127.58 110.841 127.444 110.592 127.263 110.388C127.093 110.172 126.883 110.014 126.634 109.912C126.396 109.798 126.124 109.742 125.818 109.742C125.546 109.742 125.285 109.787 125.036 109.878C124.798 109.968 124.577 110.116 124.373 110.32C124.169 110.512 123.993 110.756 123.846 111.051C123.71 111.345 123.614 111.697 123.557 112.105ZM131.224 116.763V108.994H132.414V110.371C132.618 110.053 132.856 109.781 133.128 109.555C133.4 109.317 133.7 109.135 134.029 109.011C134.358 108.875 134.698 108.807 135.049 108.807C135.48 108.807 135.865 108.914 136.205 109.13C136.545 109.345 136.817 109.691 137.021 110.167C137.225 110.643 137.327 111.272 137.327 112.054V116.763H136.137V112.088C136.137 111.544 136.075 111.113 135.95 110.796C135.825 110.467 135.655 110.235 135.44 110.099C135.225 109.951 134.981 109.878 134.709 109.878C134.448 109.878 134.182 109.934 133.91 110.048C133.649 110.161 133.406 110.325 133.179 110.541C132.952 110.745 132.765 110.994 132.618 111.289C132.482 111.583 132.414 111.918 132.414 112.292V116.763H131.224ZM143.583 116.882C143.084 116.882 142.676 116.797 142.359 116.627C142.042 116.457 141.798 116.196 141.628 115.845C141.458 115.482 141.345 115.029 141.288 114.485C141.243 113.941 141.231 113.295 141.254 112.547L141.458 107.005L142.733 106.852L142.903 106.835L142.92 106.954C142.863 107.033 142.812 107.112 142.767 107.192C142.733 107.271 142.705 107.407 142.682 107.6L142.529 109.521L142.58 109.827L142.461 112.632C142.427 113.493 142.45 114.162 142.529 114.638C142.608 115.102 142.75 115.425 142.954 115.607C143.158 115.777 143.43 115.862 143.77 115.862C144.144 115.862 144.473 115.788 144.756 115.641C145.051 115.493 145.357 115.306 145.674 115.08L146.048 116.049C145.663 116.332 145.266 116.542 144.858 116.678C144.45 116.814 144.025 116.882 143.583 116.882ZM139.69 108.994H145.283V109.997H139.69V108.994ZM156.146 116.763V108.994H157.268V109.759C157.393 109.566 157.534 109.402 157.693 109.266C157.863 109.118 158.044 109.005 158.237 108.926C158.441 108.846 158.645 108.807 158.849 108.807C159.076 108.807 159.285 108.858 159.478 108.96C159.671 109.05 159.829 109.181 159.954 109.351C160.09 109.521 160.181 109.719 160.226 109.946C160.328 109.719 160.464 109.521 160.634 109.351C160.815 109.181 161.019 109.05 161.246 108.96C161.484 108.858 161.728 108.807 161.977 108.807C162.238 108.807 162.464 108.858 162.657 108.96C162.85 109.062 163.008 109.203 163.133 109.385C163.258 109.555 163.348 109.764 163.405 110.014C163.462 110.252 163.484 110.512 163.473 110.796V116.763H162.351V111.255C162.351 110.779 162.317 110.433 162.249 110.218C162.192 110.002 162.107 109.866 161.994 109.81C161.881 109.742 161.756 109.708 161.62 109.708C161.405 109.708 161.201 109.81 161.008 110.014C160.827 110.206 160.674 110.45 160.549 110.745C160.436 111.039 160.379 111.334 160.379 111.629V116.763H159.24V111.357C159.24 110.711 159.178 110.28 159.053 110.065C158.94 109.849 158.719 109.742 158.39 109.742C158.265 109.742 158.135 109.787 157.999 109.878C157.874 109.957 157.755 110.076 157.642 110.235C157.529 110.382 157.438 110.569 157.37 110.796C157.302 111.022 157.268 111.283 157.268 111.578V116.763H156.146ZM167.587 116.95C166.703 116.95 166.023 116.751 165.547 116.355C165.071 115.947 164.833 115.431 164.833 114.808C164.833 114.388 164.935 114.014 165.139 113.686C165.343 113.346 165.621 113.062 165.972 112.836C166.335 112.598 166.754 112.416 167.23 112.292C167.706 112.167 168.21 112.105 168.743 112.105C168.936 112.105 169.128 112.11 169.321 112.122C169.525 112.122 169.735 112.133 169.95 112.156C170.177 112.167 170.409 112.19 170.647 112.224L170.681 113.159C170.477 113.125 170.267 113.102 170.052 113.091C169.848 113.068 169.644 113.051 169.44 113.04C169.236 113.028 169.038 113.023 168.845 113.023C168.437 113.023 168.063 113.057 167.723 113.125C167.383 113.193 167.088 113.295 166.839 113.431C166.59 113.567 166.397 113.742 166.261 113.958C166.125 114.173 166.057 114.434 166.057 114.74C166.057 114.978 166.097 115.182 166.176 115.352C166.267 115.51 166.386 115.641 166.533 115.743C166.68 115.833 166.85 115.901 167.043 115.947C167.247 115.992 167.468 116.015 167.706 116.015C168.148 116.015 168.539 115.947 168.879 115.811C169.23 115.663 169.525 115.454 169.763 115.182C170.012 114.91 170.199 114.575 170.324 114.179C170.449 113.782 170.511 113.329 170.511 112.819C170.511 112.048 170.42 111.447 170.239 111.017C170.058 110.586 169.786 110.28 169.423 110.099C169.072 109.917 168.618 109.827 168.063 109.827C167.689 109.827 167.321 109.9 166.958 110.048C166.595 110.184 166.267 110.399 165.972 110.694L165.377 109.912C165.74 109.549 166.159 109.277 166.635 109.096C167.111 108.914 167.615 108.824 168.148 108.824C168.658 108.824 169.123 108.886 169.542 109.011C169.961 109.135 170.318 109.345 170.613 109.64C170.919 109.923 171.151 110.308 171.31 110.796C171.48 111.283 171.565 111.895 171.565 112.632V116.763H170.239V115.573C170.092 115.856 169.91 116.088 169.695 116.27C169.491 116.451 169.27 116.593 169.032 116.695C168.794 116.785 168.55 116.848 168.301 116.882C168.052 116.927 167.814 116.95 167.587 116.95ZM175.883 112.87L174.863 113.822V116.763H173.622V105.458H174.846H175.016V105.577C174.948 105.645 174.903 105.718 174.88 105.798C174.869 105.877 174.863 106.013 174.863 106.206V112.564L178.756 108.96C178.824 108.971 178.892 108.982 178.96 108.994C179.028 109.005 179.096 109.016 179.164 109.028C179.243 109.028 179.323 109.033 179.402 109.045C179.493 109.045 179.578 109.045 179.657 109.045H180.099L176.835 112.122L180.643 116.763L179.062 116.831L175.883 112.87ZM185.624 116.933C185.057 116.933 184.542 116.848 184.077 116.678C183.612 116.496 183.21 116.236 182.87 115.896C182.541 115.556 182.286 115.136 182.105 114.638C181.924 114.128 181.833 113.55 181.833 112.904C181.833 112.246 181.924 111.663 182.105 111.153C182.298 110.643 182.553 110.218 182.87 109.878C183.199 109.526 183.578 109.26 184.009 109.079C184.451 108.897 184.916 108.807 185.403 108.807C185.845 108.807 186.259 108.88 186.644 109.028C187.029 109.175 187.364 109.402 187.647 109.708C187.93 110.002 188.151 110.382 188.31 110.847C188.48 111.311 188.565 111.861 188.565 112.496C188.565 112.586 188.559 112.683 188.548 112.785C188.548 112.875 188.542 112.966 188.531 113.057H183.006C183.029 113.555 183.114 113.992 183.261 114.366C183.408 114.728 183.601 115.029 183.839 115.267C184.077 115.493 184.349 115.663 184.655 115.777C184.972 115.89 185.307 115.947 185.658 115.947C185.93 115.947 186.185 115.918 186.423 115.862C186.661 115.794 186.882 115.697 187.086 115.573C187.301 115.437 187.494 115.272 187.664 115.08L188.344 115.743C188.129 116.003 187.879 116.224 187.596 116.406C187.324 116.587 187.024 116.717 186.695 116.797C186.366 116.887 186.009 116.933 185.624 116.933ZM183.057 112.105H187.324C187.324 111.742 187.273 111.419 187.171 111.136C187.08 110.841 186.944 110.592 186.763 110.388C186.593 110.172 186.383 110.014 186.134 109.912C185.896 109.798 185.624 109.742 185.318 109.742C185.046 109.742 184.785 109.787 184.536 109.878C184.298 109.968 184.077 110.116 183.873 110.32C183.669 110.512 183.493 110.756 183.346 111.051C183.21 111.345 183.114 111.697 183.057 112.105ZM193.767 116.933C193.336 116.933 192.923 116.887 192.526 116.797C192.141 116.706 191.772 116.57 191.421 116.389C191.081 116.207 190.764 115.981 190.469 115.709L191.149 114.553L191.251 114.4L191.353 114.468C191.376 114.558 191.398 114.655 191.421 114.757C191.455 114.847 191.534 114.961 191.659 115.097C191.897 115.335 192.18 115.533 192.509 115.692C192.849 115.839 193.28 115.913 193.801 115.913C194.22 115.913 194.572 115.862 194.855 115.76C195.15 115.658 195.376 115.516 195.535 115.335C195.694 115.142 195.773 114.921 195.773 114.672C195.773 114.502 195.739 114.354 195.671 114.23C195.603 114.094 195.49 113.969 195.331 113.856C195.184 113.742 194.985 113.629 194.736 113.516C194.487 113.402 194.181 113.289 193.818 113.176C193.229 113.006 192.713 112.807 192.271 112.581C191.829 112.354 191.489 112.093 191.251 111.799C191.013 111.493 190.894 111.147 190.894 110.762C190.894 110.365 191.002 110.025 191.217 109.742C191.432 109.447 191.75 109.22 192.169 109.062C192.6 108.892 193.127 108.807 193.75 108.807C194.113 108.807 194.441 108.835 194.736 108.892C195.031 108.937 195.303 109.011 195.552 109.113C195.801 109.215 196.028 109.345 196.232 109.504C196.447 109.651 196.651 109.827 196.844 110.031L196.147 110.881L196.028 111.017L195.943 110.932C195.932 110.841 195.903 110.756 195.858 110.677C195.824 110.586 195.745 110.478 195.62 110.354C195.359 110.15 195.065 109.997 194.736 109.895C194.407 109.781 194.09 109.725 193.784 109.725C193.331 109.725 192.94 109.804 192.611 109.963C192.282 110.121 192.118 110.365 192.118 110.694C192.118 110.864 192.175 111.034 192.288 111.204C192.413 111.362 192.634 111.527 192.951 111.697C193.268 111.855 193.722 112.02 194.311 112.19C194.957 112.394 195.473 112.603 195.858 112.819C196.255 113.023 196.538 113.261 196.708 113.533C196.889 113.805 196.98 114.128 196.98 114.502C196.98 114.932 196.861 115.335 196.623 115.709C196.396 116.083 196.045 116.383 195.569 116.61C195.093 116.825 194.492 116.933 193.767 116.933ZM210.087 116.95C209.203 116.95 208.523 116.751 208.047 116.355C207.571 115.947 207.333 115.431 207.333 114.808C207.333 114.388 207.435 114.014 207.639 113.686C207.843 113.346 208.121 113.062 208.472 112.836C208.835 112.598 209.254 112.416 209.73 112.292C210.206 112.167 210.71 112.105 211.243 112.105C211.436 112.105 211.628 112.11 211.821 112.122C212.025 112.122 212.235 112.133 212.45 112.156C212.677 112.167 212.909 112.19 213.147 112.224L213.181 113.159C212.977 113.125 212.767 113.102 212.552 113.091C212.348 113.068 212.144 113.051 211.94 113.04C211.736 113.028 211.538 113.023 211.345 113.023C210.937 113.023 210.563 113.057 210.223 113.125C209.883 113.193 209.588 113.295 209.339 113.431C209.09 113.567 208.897 113.742 208.761 113.958C208.625 114.173 208.557 114.434 208.557 114.74C208.557 114.978 208.597 115.182 208.676 115.352C208.767 115.51 208.886 115.641 209.033 115.743C209.18 115.833 209.35 115.901 209.543 115.947C209.747 115.992 209.968 116.015 210.206 116.015C210.648 116.015 211.039 115.947 211.379 115.811C211.73 115.663 212.025 115.454 212.263 115.182C212.512 114.91 212.699 114.575 212.824 114.179C212.949 113.782 213.011 113.329 213.011 112.819C213.011 112.048 212.92 111.447 212.739 111.017C212.558 110.586 212.286 110.28 211.923 110.099C211.572 109.917 211.118 109.827 210.563 109.827C210.189 109.827 209.821 109.9 209.458 110.048C209.095 110.184 208.767 110.399 208.472 110.694L207.877 109.912C208.24 109.549 208.659 109.277 209.135 109.096C209.611 108.914 210.115 108.824 210.648 108.824C211.158 108.824 211.623 108.886 212.042 109.011C212.461 109.135 212.818 109.345 213.113 109.64C213.419 109.923 213.651 110.308 213.81 110.796C213.98 111.283 214.065 111.895 214.065 112.632V116.763H212.739V115.573C212.592 115.856 212.41 116.088 212.195 116.27C211.991 116.451 211.77 116.593 211.532 116.695C211.294 116.785 211.05 116.848 210.801 116.882C210.552 116.927 210.314 116.95 210.087 116.95ZM224.52 119.602V108.994H225.761V110.524C225.886 110.127 226.061 109.804 226.288 109.555C226.526 109.305 226.798 109.124 227.104 109.011C227.421 108.886 227.761 108.824 228.124 108.824C228.555 108.824 228.963 108.909 229.348 109.079C229.745 109.237 230.09 109.481 230.385 109.81C230.691 110.138 230.929 110.552 231.099 111.051C231.28 111.549 231.371 112.139 231.371 112.819C231.371 113.499 231.275 114.099 231.082 114.621C230.901 115.142 230.651 115.578 230.334 115.93C230.028 116.27 229.677 116.53 229.28 116.712C228.895 116.882 228.498 116.967 228.09 116.967C227.784 116.967 227.484 116.916 227.189 116.814C226.906 116.723 226.645 116.587 226.407 116.406C226.169 116.213 225.959 115.992 225.778 115.743V119.602H224.52ZM227.886 115.879C228.158 115.879 228.424 115.833 228.685 115.743C228.946 115.641 229.184 115.476 229.399 115.25C229.614 115.023 229.784 114.717 229.909 114.332C230.034 113.935 230.096 113.448 230.096 112.87C230.096 112.246 230.017 111.719 229.858 111.289C229.699 110.847 229.467 110.507 229.161 110.269C228.866 110.031 228.504 109.9 228.073 109.878C227.756 109.855 227.455 109.9 227.172 110.014C226.9 110.127 226.656 110.314 226.441 110.575C226.226 110.835 226.056 111.181 225.931 111.612C225.818 112.031 225.761 112.541 225.761 113.142C225.772 113.504 225.812 113.833 225.88 114.128C225.948 114.422 226.044 114.683 226.169 114.91C226.294 115.125 226.441 115.306 226.611 115.454C226.781 115.59 226.974 115.697 227.189 115.777C227.404 115.845 227.637 115.879 227.886 115.879ZM234.023 108.994H235.298L235.247 111.255L235.094 111C235.162 110.648 235.281 110.337 235.451 110.065C235.621 109.793 235.825 109.566 236.063 109.385C236.301 109.192 236.562 109.05 236.845 108.96C237.128 108.858 237.423 108.807 237.729 108.807C238.137 108.807 238.511 108.88 238.851 109.028C239.202 109.164 239.514 109.373 239.786 109.657L239.242 110.609L239.174 110.762L239.055 110.694C239.032 110.603 238.998 110.518 238.953 110.439C238.908 110.359 238.811 110.263 238.664 110.15C238.483 110.036 238.313 109.963 238.154 109.929C238.007 109.883 237.837 109.861 237.644 109.861C237.361 109.861 237.077 109.917 236.794 110.031C236.511 110.133 236.25 110.297 236.012 110.524C235.785 110.75 235.604 111.039 235.468 111.391C235.332 111.742 235.264 112.161 235.264 112.649V116.78H234.023V108.994ZM244.75 116.899C244.047 116.899 243.424 116.729 242.88 116.389C242.347 116.037 241.928 115.561 241.622 114.961C241.316 114.349 241.163 113.652 241.163 112.87C241.163 112.076 241.316 111.379 241.622 110.779C241.928 110.167 242.347 109.691 242.88 109.351C243.424 108.999 244.047 108.824 244.75 108.824C245.453 108.824 246.07 108.999 246.603 109.351C247.147 109.691 247.572 110.167 247.878 110.779C248.184 111.379 248.337 112.076 248.337 112.87C248.337 113.652 248.184 114.349 247.878 114.961C247.572 115.561 247.147 116.037 246.603 116.389C246.07 116.729 245.453 116.899 244.75 116.899ZM244.75 115.879C245.203 115.879 245.6 115.748 245.94 115.488C246.28 115.227 246.546 114.87 246.739 114.417C246.943 113.963 247.045 113.442 247.045 112.853C247.045 112.263 246.943 111.742 246.739 111.289C246.546 110.835 246.28 110.484 245.94 110.235C245.6 109.974 245.203 109.844 244.75 109.844C244.308 109.844 243.911 109.974 243.56 110.235C243.22 110.484 242.948 110.835 242.744 111.289C242.551 111.742 242.455 112.263 242.455 112.853C242.455 113.442 242.551 113.963 242.744 114.417C242.948 114.87 243.22 115.227 243.56 115.488C243.911 115.748 244.308 115.879 244.75 115.879ZM252.298 119.721C251.811 119.721 251.346 119.63 250.904 119.449C250.473 119.267 250.111 118.995 249.816 118.633L250.496 117.715L250.598 117.579L250.7 117.647C250.723 117.737 250.751 117.822 250.785 117.902C250.819 117.992 250.898 118.106 251.023 118.242C251.182 118.366 251.363 118.468 251.567 118.548C251.782 118.627 252.02 118.667 252.281 118.667C252.621 118.667 252.921 118.587 253.182 118.429C253.454 118.281 253.664 118.043 253.811 117.715C253.958 117.397 254.032 116.978 254.032 116.457V109.997H251.142V108.994H255.273V116.389C255.273 117.171 255.137 117.805 254.865 118.293C254.593 118.791 254.23 119.154 253.777 119.381C253.335 119.607 252.842 119.721 252.298 119.721ZM254.559 107.362C254.321 107.362 254.117 107.277 253.947 107.107C253.777 106.937 253.692 106.733 253.692 106.495C253.692 106.245 253.771 106.036 253.93 105.866C254.1 105.696 254.31 105.611 254.559 105.611C254.797 105.611 255.001 105.701 255.171 105.883C255.352 106.053 255.443 106.257 255.443 106.495C255.443 106.733 255.352 106.937 255.171 107.107C255.001 107.277 254.797 107.362 254.559 107.362ZM262.124 116.933C261.557 116.933 261.042 116.848 260.577 116.678C260.112 116.496 259.71 116.236 259.37 115.896C259.041 115.556 258.786 115.136 258.605 114.638C258.424 114.128 258.333 113.55 258.333 112.904C258.333 112.246 258.424 111.663 258.605 111.153C258.798 110.643 259.053 110.218 259.37 109.878C259.699 109.526 260.078 109.26 260.509 109.079C260.951 108.897 261.416 108.807 261.903 108.807C262.345 108.807 262.759 108.88 263.144 109.028C263.529 109.175 263.864 109.402 264.147 109.708C264.43 110.002 264.651 110.382 264.81 110.847C264.98 111.311 265.065 111.861 265.065 112.496C265.065 112.586 265.059 112.683 265.048 112.785C265.048 112.875 265.042 112.966 265.031 113.057H259.506C259.529 113.555 259.614 113.992 259.761 114.366C259.908 114.728 260.101 115.029 260.339 115.267C260.577 115.493 260.849 115.663 261.155 115.777C261.472 115.89 261.807 115.947 262.158 115.947C262.43 115.947 262.685 115.918 262.923 115.862C263.161 115.794 263.382 115.697 263.586 115.573C263.801 115.437 263.994 115.272 264.164 115.08L264.844 115.743C264.629 116.003 264.379 116.224 264.096 116.406C263.824 116.587 263.524 116.717 263.195 116.797C262.866 116.887 262.509 116.933 262.124 116.933ZM259.557 112.105H263.824C263.824 111.742 263.773 111.419 263.671 111.136C263.58 110.841 263.444 110.592 263.263 110.388C263.093 110.172 262.883 110.014 262.634 109.912C262.396 109.798 262.124 109.742 261.818 109.742C261.546 109.742 261.285 109.787 261.036 109.878C260.798 109.968 260.577 110.116 260.373 110.32C260.169 110.512 259.993 110.756 259.846 111.051C259.71 111.345 259.614 111.697 259.557 112.105ZM270.845 116.95C270.278 116.95 269.757 116.848 269.281 116.644C268.805 116.44 268.391 116.156 268.04 115.794C267.7 115.431 267.434 115.006 267.241 114.519C267.048 114.02 266.952 113.476 266.952 112.887C266.952 112.309 267.048 111.776 267.241 111.289C267.434 110.79 267.7 110.359 268.04 109.997C268.391 109.634 268.805 109.351 269.281 109.147C269.757 108.943 270.273 108.841 270.828 108.841C271.463 108.841 272.029 108.971 272.528 109.232C273.038 109.481 273.452 109.832 273.769 110.286L273.004 111.034L272.885 111.153L272.8 111.068C272.8 110.977 272.777 110.892 272.732 110.813C272.698 110.733 272.613 110.626 272.477 110.49C272.228 110.263 271.961 110.104 271.678 110.014C271.395 109.923 271.066 109.878 270.692 109.878C270.363 109.878 270.052 109.946 269.757 110.082C269.462 110.218 269.196 110.416 268.958 110.677C268.731 110.926 268.55 111.232 268.414 111.595C268.278 111.957 268.21 112.36 268.21 112.802C268.21 113.244 268.278 113.652 268.414 114.026C268.55 114.388 268.737 114.706 268.975 114.978C269.213 115.25 269.496 115.465 269.825 115.624C270.165 115.771 270.528 115.845 270.913 115.845C271.174 115.845 271.423 115.811 271.661 115.743C271.899 115.663 272.126 115.556 272.341 115.42C272.556 115.272 272.755 115.097 272.936 114.893L273.65 115.726C273.265 116.134 272.834 116.44 272.358 116.644C271.893 116.848 271.389 116.95 270.845 116.95ZM279.583 116.882C279.084 116.882 278.676 116.797 278.359 116.627C278.042 116.457 277.798 116.196 277.628 115.845C277.458 115.482 277.345 115.029 277.288 114.485C277.243 113.941 277.231 113.295 277.254 112.547L277.458 107.005L278.733 106.852L278.903 106.835L278.92 106.954C278.863 107.033 278.812 107.112 278.767 107.192C278.733 107.271 278.705 107.407 278.682 107.6L278.529 109.521L278.58 109.827L278.461 112.632C278.427 113.493 278.45 114.162 278.529 114.638C278.608 115.102 278.75 115.425 278.954 115.607C279.158 115.777 279.43 115.862 279.77 115.862C280.144 115.862 280.473 115.788 280.756 115.641C281.051 115.493 281.357 115.306 281.674 115.08L282.048 116.049C281.663 116.332 281.266 116.542 280.858 116.678C280.45 116.814 280.025 116.882 279.583 116.882ZM275.69 108.994H281.283V109.997H275.69V108.994ZM286.383 119.619L285.805 119.109C286.122 118.814 286.383 118.497 286.587 118.157C286.802 117.817 286.91 117.539 286.91 117.324C286.91 117.21 286.865 117.103 286.774 117.001C286.695 116.91 286.593 116.819 286.468 116.729C286.355 116.638 286.253 116.536 286.162 116.423C286.083 116.298 286.043 116.162 286.043 116.015C286.043 115.731 286.134 115.493 286.315 115.301C286.508 115.108 286.751 115.012 287.046 115.012C287.341 115.012 287.607 115.142 287.845 115.403C288.083 115.663 288.202 116.003 288.202 116.423C288.202 116.649 288.162 116.882 288.083 117.12C288.015 117.369 287.902 117.624 287.743 117.885C287.596 118.157 287.409 118.434 287.182 118.718C286.955 119.012 286.689 119.313 286.383 119.619ZM63.02 137.602V126.994H64.261V128.524C64.3857 128.127 64.5613 127.804 64.788 127.555C65.026 127.305 65.298 127.124 65.604 127.011C65.9213 126.886 66.2613 126.824 66.624 126.824C67.0547 126.824 67.4627 126.909 67.848 127.079C68.2447 127.237 68.5903 127.481 68.885 127.81C69.191 128.138 69.429 128.552 69.599 129.051C69.7803 129.549 69.871 130.139 69.871 130.819C69.871 131.499 69.7747 132.099 69.582 132.621C69.4007 133.142 69.1513 133.578 68.834 133.93C68.528 134.27 68.1767 134.53 67.78 134.712C67.3947 134.882 66.998 134.967 66.59 134.967C66.284 134.967 65.9837 134.916 65.689 134.814C65.4057 134.723 65.145 134.587 64.907 134.406C64.669 134.213 64.4593 133.992 64.278 133.743V137.602H63.02ZM66.386 133.879C66.658 133.879 66.9243 133.833 67.185 133.743C67.4457 133.641 67.6837 133.476 67.899 133.25C68.1143 133.023 68.2843 132.717 68.409 132.332C68.5337 131.935 68.596 131.448 68.596 130.87C68.596 130.246 68.5167 129.719 68.358 129.289C68.1993 128.847 67.967 128.507 67.661 128.269C67.3663 128.031 67.0037 127.9 66.573 127.878C66.2557 127.855 65.9553 127.9 65.672 128.014C65.4 128.127 65.1563 128.314 64.941 128.575C64.7257 128.835 64.5557 129.181 64.431 129.612C64.3177 130.031 64.261 130.541 64.261 131.142C64.2723 131.504 64.312 131.833 64.38 132.128C64.448 132.422 64.5443 132.683 64.669 132.91C64.7937 133.125 64.941 133.306 65.111 133.454C65.281 133.59 65.4737 133.697 65.689 133.777C65.9043 133.845 66.1367 133.879 66.386 133.879ZM72.523 126.994H73.798L73.747 129.255L73.594 129C73.662 128.648 73.781 128.337 73.951 128.065C74.121 127.793 74.325 127.566 74.563 127.385C74.801 127.192 75.0617 127.05 75.345 126.96C75.6283 126.858 75.923 126.807 76.229 126.807C76.637 126.807 77.011 126.88 77.351 127.028C77.7023 127.164 78.014 127.373 78.286 127.657L77.742 128.609L77.674 128.762L77.555 128.694C77.5323 128.603 77.4983 128.518 77.453 128.439C77.4077 128.359 77.3113 128.263 77.164 128.15C76.9827 128.036 76.8127 127.963 76.654 127.929C76.5067 127.883 76.3367 127.861 76.144 127.861C75.8607 127.861 75.5773 127.917 75.294 128.031C75.0107 128.133 74.75 128.297 74.512 128.524C74.2853 128.75 74.104 129.039 73.968 129.391C73.832 129.742 73.764 130.161 73.764 130.649V134.78H72.523V126.994ZM83.25 134.899C82.5473 134.899 81.924 134.729 81.38 134.389C80.8473 134.037 80.428 133.561 80.122 132.961C79.816 132.349 79.663 131.652 79.663 130.87C79.663 130.076 79.816 129.379 80.122 128.779C80.428 128.167 80.8473 127.691 81.38 127.351C81.924 126.999 82.5473 126.824 83.25 126.824C83.9527 126.824 84.5703 126.999 85.103 127.351C85.647 127.691 86.072 128.167 86.378 128.779C86.684 129.379 86.837 130.076 86.837 130.87C86.837 131.652 86.684 132.349 86.378 132.961C86.072 133.561 85.647 134.037 85.103 134.389C84.5703 134.729 83.9527 134.899 83.25 134.899ZM83.25 133.879C83.7033 133.879 84.1 133.748 84.44 133.488C84.78 133.227 85.0463 132.87 85.239 132.417C85.443 131.963 85.545 131.442 85.545 130.853C85.545 130.263 85.443 129.742 85.239 129.289C85.0463 128.835 84.78 128.484 84.44 128.235C84.1 127.974 83.7033 127.844 83.25 127.844C82.808 127.844 82.4113 127.974 82.06 128.235C81.72 128.484 81.448 128.835 81.244 129.289C81.0513 129.742 80.955 130.263 80.955 130.853C80.955 131.442 81.0513 131.963 81.244 132.417C81.448 132.87 81.72 133.227 82.06 133.488C82.4113 133.748 82.808 133.879 83.25 133.879ZM91.478 134.933C91.0813 134.933 90.6903 134.848 90.305 134.678C89.931 134.508 89.5853 134.253 89.268 133.913C88.962 133.573 88.7183 133.142 88.537 132.621C88.3557 132.099 88.265 131.493 88.265 130.802C88.265 130.088 88.3613 129.481 88.554 128.983C88.7467 128.473 89.0017 128.059 89.319 127.742C89.6363 127.413 89.9877 127.175 90.373 127.028C90.7583 126.869 91.1493 126.79 91.546 126.79C91.9087 126.79 92.2317 126.846 92.515 126.96C92.8097 127.073 93.0647 127.232 93.28 127.436C93.5067 127.628 93.6823 127.861 93.807 128.133V123.458H94.929H95.099V123.577C95.031 123.645 94.9857 123.718 94.963 123.798C94.9517 123.877 94.946 124.013 94.946 124.206L94.963 133.556C94.963 133.76 94.9687 133.964 94.98 134.168C95.0027 134.36 95.0537 134.559 95.133 134.763H93.926C93.8693 134.627 93.8297 134.491 93.807 134.355C93.7843 134.219 93.7673 134.088 93.756 133.964C93.756 133.828 93.756 133.692 93.756 133.556C93.5973 133.828 93.4047 134.071 93.178 134.287C92.9513 134.491 92.6963 134.649 92.413 134.763C92.1297 134.876 91.818 134.933 91.478 134.933ZM91.665 133.862C92.039 133.862 92.3563 133.788 92.617 133.641C92.8777 133.482 93.0873 133.267 93.246 132.995C93.4047 132.711 93.518 132.388 93.586 132.026C93.6653 131.652 93.705 131.255 93.705 130.836C93.705 130.258 93.6313 129.742 93.484 129.289C93.3367 128.824 93.1043 128.461 92.787 128.201C92.4697 127.929 92.0617 127.793 91.563 127.793C91.223 127.793 90.917 127.861 90.645 127.997C90.3843 128.121 90.1633 128.308 89.982 128.558C89.812 128.807 89.6817 129.107 89.591 129.459C89.5003 129.799 89.455 130.184 89.455 130.615C89.455 131.261 89.54 131.827 89.71 132.315C89.88 132.802 90.1293 133.182 90.458 133.454C90.7867 133.726 91.189 133.862 91.665 133.862ZM99.757 134.95C99.451 134.95 99.162 134.904 98.89 134.814C98.618 134.723 98.3687 134.587 98.142 134.406C97.9267 134.213 97.7397 133.975 97.581 133.692C97.4223 133.408 97.2977 133.068 97.207 132.672C97.1277 132.275 97.088 131.827 97.088 131.329L97.105 126.994H98.295V131.329C98.295 131.816 98.3403 132.23 98.431 132.57C98.5217 132.91 98.6463 133.182 98.805 133.386C98.975 133.59 99.1677 133.737 99.383 133.828C99.5983 133.918 99.825 133.964 100.063 133.964C100.335 133.964 100.596 133.913 100.845 133.811C101.094 133.697 101.315 133.533 101.508 133.318C101.712 133.102 101.871 132.825 101.984 132.485C102.097 132.145 102.154 131.742 102.154 131.278V126.994H103.344V133.556C103.344 133.76 103.35 133.964 103.361 134.168C103.384 134.36 103.435 134.559 103.514 134.763H102.341C102.284 134.627 102.245 134.496 102.222 134.372C102.199 134.236 102.182 134.1 102.171 133.964C102.171 133.828 102.171 133.697 102.171 133.573C102.046 133.788 101.899 133.981 101.729 134.151C101.559 134.321 101.366 134.468 101.151 134.593C100.947 134.706 100.726 134.791 100.488 134.848C100.261 134.916 100.018 134.95 99.757 134.95ZM109.345 134.95C108.778 134.95 108.257 134.848 107.781 134.644C107.305 134.44 106.891 134.156 106.54 133.794C106.2 133.431 105.934 133.006 105.741 132.519C105.548 132.02 105.452 131.476 105.452 130.887C105.452 130.309 105.548 129.776 105.741 129.289C105.934 128.79 106.2 128.359 106.54 127.997C106.891 127.634 107.305 127.351 107.781 127.147C108.257 126.943 108.773 126.841 109.328 126.841C109.963 126.841 110.529 126.971 111.028 127.232C111.538 127.481 111.952 127.832 112.269 128.286L111.504 129.034L111.385 129.153L111.3 129.068C111.3 128.977 111.277 128.892 111.232 128.813C111.198 128.733 111.113 128.626 110.977 128.49C110.728 128.263 110.461 128.104 110.178 128.014C109.895 127.923 109.566 127.878 109.192 127.878C108.863 127.878 108.552 127.946 108.257 128.082C107.962 128.218 107.696 128.416 107.458 128.677C107.231 128.926 107.05 129.232 106.914 129.595C106.778 129.957 106.71 130.36 106.71 130.802C106.71 131.244 106.778 131.652 106.914 132.026C107.05 132.388 107.237 132.706 107.475 132.978C107.713 133.25 107.996 133.465 108.325 133.624C108.665 133.771 109.028 133.845 109.413 133.845C109.674 133.845 109.923 133.811 110.161 133.743C110.399 133.663 110.626 133.556 110.841 133.42C111.056 133.272 111.255 133.097 111.436 132.893L112.15 133.726C111.765 134.134 111.334 134.44 110.858 134.644C110.393 134.848 109.889 134.95 109.345 134.95ZM118.083 134.882C117.584 134.882 117.176 134.797 116.859 134.627C116.542 134.457 116.298 134.196 116.128 133.845C115.958 133.482 115.845 133.029 115.788 132.485C115.743 131.941 115.731 131.295 115.754 130.547L115.958 125.005L117.233 124.852L117.403 124.835L117.42 124.954C117.363 125.033 117.312 125.112 117.267 125.192C117.233 125.271 117.205 125.407 117.182 125.6L117.029 127.521L117.08 127.827L116.961 130.632C116.927 131.493 116.95 132.162 117.029 132.638C117.108 133.102 117.25 133.425 117.454 133.607C117.658 133.777 117.93 133.862 118.27 133.862C118.644 133.862 118.973 133.788 119.256 133.641C119.551 133.493 119.857 133.306 120.174 133.08L120.548 134.049C120.163 134.332 119.766 134.542 119.358 134.678C118.95 134.814 118.525 134.882 118.083 134.882ZM114.19 126.994H119.783V127.997H114.19V126.994Z" fill="white" fill-opacity="0.76"/>
<g clip-path="url(#clip0_71_44)">
<path d="M432 87.077C432 87.6185 432.45 88.0616 433 88.0616H434V91.5077C434 92.325 434.67 92.9847 435.5 92.9847C436.33 92.9847 437 92.325 437 91.5077V88.0616H439V91.5077C439 92.325 439.67 92.9847 440.5 92.9847C441.33 92.9847 442 92.325 442 91.5077V88.0616H443C443.55 88.0616 444 87.6185 444 87.077V77.2308H432V87.077ZM429.5 77.2308C428.67 77.2308 428 77.8905 428 78.7077V85.6C428 86.4173 428.67 87.077 429.5 87.077C430.33 87.077 431 86.4173 431 85.6V78.7077C431 77.8905 430.33 77.2308 429.5 77.2308ZM446.5 77.2308C445.67 77.2308 445 77.8905 445 78.7077V85.6C445 86.4173 445.67 87.077 446.5 87.077C447.33 87.077 448 86.4173 448 85.6V78.7077C448 77.8905 447.33 77.2308 446.5 77.2308ZM441.53 71.4807L442.83 70.2007C443.03 70.0037 443.03 69.6985 442.83 69.5016C442.63 69.3047 442.32 69.3047 442.12 69.5016L440.64 70.9588C439.85 70.565 438.95 70.3385 438 70.3385C437.04 70.3385 436.14 70.565 435.34 70.9588L433.85 69.5016C433.65 69.3047 433.34 69.3047 433.14 69.5016C432.94 69.6985 432.94 70.0037 433.14 70.2007L434.45 71.4905C432.97 72.5637 432 74.2868 432 76.2462H444C444 74.2868 443.03 72.5539 441.53 71.4807ZM436 74.277H435V73.2923H436V74.277ZM441 74.277H440V73.2923H441V74.277Z" fill="white"/>
</g>
<defs>
<filter id="filter0_dd_71_44" x="0" y="0" width="532" height="196" filterUnits="userSpaceOnUse" color-interpolation-filters="sRGB">
<feFlood flood-opacity="0" result="BackgroundImageFix"/>
<feColorMatrix in="SourceAlpha" type="matrix" values="0 0 0 0 0 0 0 0 0 0 0 0 0 0 0 0 0 0 127 0" result="hardAlpha"/>
<feOffset dx="10" dy="10"/>
<feGaussianBlur stdDeviation="15"/>
<feColorMatrix type="matrix" values="0 0 0 0 0 0 0 0 0 0.0188393 0 0 0 0 0.0412109 0 0 0 1 0"/>
<feBlend mode="normal" in2="BackgroundImageFix" result="effect1_dropShadow_71_44"/>
<feColorMatrix in="SourceAlpha" type="matrix" values="0 0 0 0 0 0 0 0 0 0 0 0 0 0 0 0 0 0 127 0" result="hardAlpha"/>
<feMorphology radius="10" operator="dilate" in="SourceAlpha" result="effect2_dropShadow_71_44"/>
<feOffset/>
<feGaussianBlur stdDeviation="9"/>
<feColorMatrix type="matrix" values="0 0 0 0 0.0666319 0 0 0 0 0.748663 0 0 0 0 0.841667 0 0 0 1 0"/>
<feBlend mode="normal" in2="effect1_dropShadow_71_44" result="effect2_dropShadow_71_44"/>
<feBlend mode="normal" in="SourceGraphic" in2="effect2_dropShadow_71_44" result="shape"/>
</filter>
<clipPath id="clip0_71_44">
<rect width="24" height="23.6308" fill="white" transform="translate(426 69.3539)"/>
</clipPath>
</defs>
</svg>
