<svg width="532" height="196" viewBox="0 0 532 196" fill="none" xmlns="http://www.w3.org/2000/svg">
<g filter="url(#filter0_dd_71_42)">
<rect x="28" y="28" width="464" height="128" rx="20" fill="#00050B"/>
</g>
<path d="M63.38 83.5685V64.8485H68.03C69.13 64.8485 70.05 64.9485 70.79 65.1485C71.55 65.3485 72.19 65.6385 72.71 66.0185C73.25 66.3985 73.72 66.8685 74.12 67.4285C74.54 67.9885 74.89 68.6185 75.17 69.3185C75.47 70.0185 75.69 70.7885 75.83 71.6285C75.97 72.4485 76.04 73.3385 76.04 74.2985C76.02 75.7385 75.84 77.0285 75.5 78.1685C75.18 79.3085 74.68 80.2785 74 81.0785C73.34 81.8785 72.49 82.4985 71.45 82.9385C70.41 83.3585 69.15 83.5685 67.67 83.5685H63.38ZM66.23 81.2285H67.61C68.95 81.2285 70.02 80.9585 70.82 80.4185C71.64 79.8585 72.23 79.0685 72.59 78.0485C72.97 77.0085 73.16 75.7885 73.16 74.3885C73.16 72.9085 72.99 71.6385 72.65 70.5785C72.31 69.5185 71.76 68.6985 71 68.1185C70.26 67.5185 69.23 67.2185 67.91 67.2185H66.23V81.2285ZM85.13 83.8685C84.13 83.8685 83.21 83.7085 82.37 83.3885C81.53 83.0685 80.8 82.6085 80.18 82.0085C79.58 81.3885 79.11 80.6285 78.77 79.7285C78.43 78.8285 78.26 77.8085 78.26 76.6685C78.26 75.5085 78.43 74.4785 78.77 73.5785C79.11 72.6585 79.57 71.8885 80.15 71.2685C80.75 70.6485 81.44 70.1685 82.22 69.8285C83.02 69.4885 83.87 69.3185 84.77 69.3185C85.55 69.3185 86.29 69.4585 86.99 69.7385C87.71 70.0185 88.33 70.4385 88.85 70.9985C89.39 71.5385 89.81 72.2285 90.11 73.0685C90.43 73.9085 90.59 74.8885 90.59 76.0085C90.59 76.2085 90.59 76.4385 90.59 76.6985C90.59 76.9385 90.58 77.1485 90.56 77.3285H81.14C81.18 78.0485 81.32 78.6785 81.56 79.2185C81.8 79.7385 82.1 80.1685 82.46 80.5085C82.84 80.8485 83.27 81.0985 83.75 81.2585C84.23 81.4185 84.73 81.4985 85.25 81.4985C85.71 81.4985 86.13 81.4585 86.51 81.3785C86.91 81.2785 87.29 81.1285 87.65 80.9285C88.01 80.7285 88.34 80.4585 88.64 80.1185L90.2 81.6485C89.78 82.1485 89.31 82.5685 88.79 82.9085C88.27 83.2285 87.7 83.4685 87.08 83.6285C86.48 83.7885 85.83 83.8685 85.13 83.8685ZM81.2 75.0785H87.68C87.68 74.5185 87.61 74.0285 87.47 73.6085C87.33 73.1885 87.12 72.8285 86.84 72.5285C86.58 72.2285 86.26 72.0085 85.88 71.8685C85.5 71.7085 85.08 71.6285 84.62 71.6285C84.18 71.6285 83.77 71.6985 83.39 71.8385C83.03 71.9785 82.7 72.1885 82.4 72.4685C82.1 72.7485 81.84 73.1085 81.62 73.5485C81.42 73.9685 81.28 74.4785 81.2 75.0785ZM99.71 83.8685C98.87 83.8685 98.08 83.7885 97.34 83.6285C96.6 83.4685 95.9 83.2285 95.24 82.9085C94.6 82.5885 94.01 82.1785 93.47 81.6785L94.85 79.1585L95.03 78.8885L95.24 79.0085C95.28 79.1685 95.33 79.3385 95.39 79.5185C95.45 79.6785 95.59 79.8785 95.81 80.1185C96.29 80.5385 96.84 80.8785 97.46 81.1385C98.08 81.3785 98.84 81.4985 99.74 81.4985C100.36 81.4985 100.88 81.4285 101.3 81.2885C101.74 81.1285 102.08 80.9185 102.32 80.6585C102.56 80.3785 102.68 80.0685 102.68 79.7285C102.68 79.4685 102.61 79.2485 102.47 79.0685C102.35 78.8685 102.16 78.6885 101.9 78.5285C101.64 78.3485 101.3 78.1785 100.88 78.0185C100.46 77.8385 99.95 77.6685 99.35 77.5085C98.33 77.2085 97.44 76.8685 96.68 76.4885C95.92 76.0885 95.33 75.6185 94.91 75.0785C94.49 74.5385 94.28 73.8985 94.28 73.1585C94.28 72.4185 94.49 71.7685 94.91 71.2085C95.35 70.6285 95.97 70.1685 96.77 69.8285C97.57 69.4885 98.52 69.3185 99.62 69.3185C100.22 69.3185 100.78 69.3685 101.3 69.4685C101.84 69.5485 102.33 69.6785 102.77 69.8585C103.23 70.0385 103.66 70.2685 104.06 70.5485C104.46 70.8085 104.84 71.1185 105.2 71.4785L103.67 73.5185L103.49 73.7585L103.28 73.5785C103.26 73.4185 103.21 73.2685 103.13 73.1285C103.07 72.9885 102.93 72.8085 102.71 72.5885C102.27 72.2685 101.79 72.0285 101.27 71.8685C100.75 71.7085 100.22 71.6285 99.68 71.6285C98.98 71.6285 98.36 71.7485 97.82 71.9885C97.3 72.2285 97.04 72.5885 97.04 73.0685C97.04 73.3485 97.15 73.6085 97.37 73.8485C97.61 74.0885 97.99 74.3285 98.51 74.5685C99.03 74.7885 99.74 75.0185 100.64 75.2585C101.78 75.5585 102.7 75.9085 103.4 76.3085C104.1 76.6885 104.61 77.1385 104.93 77.6585C105.27 78.1785 105.44 78.7885 105.44 79.4885C105.44 80.2685 105.22 80.9985 104.78 81.6785C104.36 82.3385 103.72 82.8685 102.86 83.2685C102 83.6685 100.95 83.8685 99.71 83.8685ZM109.7 83.5385V81.1685H113.15V72.0185H109.85V69.6485H116.15V81.1685H119.3V83.5385H109.7ZM114.47 67.1585C113.93 67.1585 113.47 66.9785 113.09 66.6185C112.73 66.2385 112.55 65.7985 112.55 65.2985C112.55 64.7585 112.73 64.3085 113.09 63.9485C113.45 63.5885 113.91 63.4085 114.47 63.4085C114.99 63.4085 115.44 63.5985 115.82 63.9785C116.22 64.3585 116.42 64.7985 116.42 65.2985C116.42 65.7985 116.22 66.2385 115.82 66.6185C115.44 66.9785 114.99 67.1585 114.47 67.1585ZM129.23 88.8185C128.27 88.8185 127.4 88.7385 126.62 88.5785C125.84 88.4185 125.17 88.1785 124.61 87.8585C124.07 87.5585 123.66 87.1785 123.38 86.7185C123.1 86.2785 122.96 85.7785 122.96 85.2185C122.96 84.6985 123.08 84.2285 123.32 83.8085C123.56 83.3885 123.88 83.0285 124.28 82.7285C124.68 82.4085 125.12 82.1685 125.6 82.0085L126.92 82.6085C126.6 82.8085 126.32 83.0085 126.08 83.2085C125.84 83.4085 125.65 83.6285 125.51 83.8685C125.39 84.1285 125.33 84.4285 125.33 84.7685C125.33 85.0685 125.43 85.3285 125.63 85.5485C125.83 85.7685 126.11 85.9485 126.47 86.0885C126.83 86.2285 127.26 86.3385 127.76 86.4185C128.26 86.4985 128.82 86.5385 129.44 86.5385C130.26 86.5385 130.94 86.4585 131.48 86.2985C132.02 86.1585 132.42 85.9485 132.68 85.6685C132.96 85.3885 133.1 85.0685 133.1 84.7085C133.1 84.3485 133.02 84.0585 132.86 83.8385C132.7 83.6385 132.4 83.4885 131.96 83.3885C131.52 83.2685 130.88 83.2085 130.04 83.2085C129.36 83.2085 128.71 83.1885 128.09 83.1485C127.49 83.0885 126.93 82.9885 126.41 82.8485C125.91 82.7085 125.47 82.5285 125.09 82.3085C124.71 82.0885 124.41 81.8185 124.19 81.4985C123.99 81.1585 123.89 80.7585 123.89 80.2985C123.89 79.6985 124.07 79.1585 124.43 78.6785C124.79 78.1785 125.24 77.7285 125.78 77.3285L127.13 78.1685C126.95 78.3685 126.79 78.5385 126.65 78.6785C126.51 78.8185 126.4 78.9585 126.32 79.0985C126.24 79.2185 126.2 79.3685 126.2 79.5485C126.2 79.8085 126.35 80.0285 126.65 80.2085C126.95 80.3885 127.43 80.5185 128.09 80.5985C128.77 80.6785 129.67 80.7185 130.79 80.7185C131.73 80.7185 132.51 80.8185 133.13 81.0185C133.77 81.1985 134.27 81.4585 134.63 81.7985C134.99 82.1385 135.24 82.5285 135.38 82.9685C135.54 83.3885 135.62 83.8585 135.62 84.3785C135.62 84.9385 135.5 85.4785 135.26 85.9985C135.02 86.5385 134.64 87.0185 134.12 87.4385C133.62 87.8585 132.96 88.1885 132.14 88.4285C131.34 88.6885 130.37 88.8185 129.23 88.8185ZM128.84 78.8585C127.86 78.8585 126.99 78.6485 126.23 78.2285C125.47 77.7885 124.87 77.2085 124.43 76.4885C124.01 75.7685 123.8 74.9585 123.8 74.0585C123.8 73.1585 124.01 72.3485 124.43 71.6285C124.87 70.8885 125.47 70.3085 126.23 69.8885C126.99 69.4485 127.86 69.2285 128.84 69.2285C129.84 69.2285 130.72 69.4485 131.48 69.8885C132.24 70.3085 132.83 70.8885 133.25 71.6285C133.69 72.3485 133.91 73.1585 133.91 74.0585C133.91 74.9585 133.69 75.7685 133.25 76.4885C132.83 77.2085 132.24 77.7885 131.48 78.2285C130.72 78.6485 129.84 78.8585 128.84 78.8585ZM128.84 76.6085C129.34 76.6085 129.78 76.4985 130.16 76.2785C130.54 76.0585 130.84 75.7585 131.06 75.3785C131.28 74.9785 131.39 74.5385 131.39 74.0585C131.39 73.5585 131.28 73.1285 131.06 72.7685C130.84 72.3885 130.53 72.0885 130.13 71.8685C129.75 71.6485 129.32 71.5385 128.84 71.5385C128.38 71.5385 127.96 71.6485 127.58 71.8685C127.2 72.0885 126.89 72.3885 126.65 72.7685C126.43 73.1485 126.32 73.5785 126.32 74.0585C126.32 74.5185 126.43 74.9485 126.65 75.3485C126.87 75.7285 127.17 76.0385 127.55 76.2785C127.93 76.4985 128.36 76.6085 128.84 76.6085ZM133.07 72.1085L131.93 70.6985C132.51 70.2185 133.14 69.8585 133.82 69.6185C134.52 69.3585 135.29 69.2585 136.13 69.3185L136.43 71.4485C135.81 71.3685 135.21 71.3785 134.63 71.4785C134.05 71.5585 133.53 71.7685 133.07 72.1085ZM138.8 83.5385V69.6485H141.8V71.7785C142.14 71.2785 142.52 70.8485 142.94 70.4885C143.36 70.1285 143.83 69.8485 144.35 69.6485C144.87 69.4285 145.43 69.3185 146.03 69.3185C146.81 69.3185 147.53 69.5185 148.19 69.9185C148.85 70.3185 149.38 70.9485 149.78 71.8085C150.18 72.6485 150.38 73.7685 150.38 75.1685V83.5385H147.41V75.1985C147.41 74.3785 147.32 73.7085 147.14 73.1885C146.96 72.6685 146.7 72.2885 146.36 72.0485C146.04 71.8085 145.65 71.6885 145.19 71.6885C144.79 71.6885 144.39 71.7785 143.99 71.9585C143.59 72.1385 143.22 72.3885 142.88 72.7085C142.56 73.0085 142.3 73.3885 142.1 73.8485C141.9 74.2885 141.8 74.7885 141.8 75.3485V83.5385H138.8Z" fill="white"/>
<path d="M62.918 116.78V106.172H65.383C65.995 106.172 66.5107 106.228 66.93 106.342C67.3493 106.455 67.7063 106.619 68.001 106.835C68.2957 107.039 68.5563 107.299 68.783 107.617C69.021 107.934 69.2137 108.291 69.361 108.688C69.5197 109.084 69.633 109.521 69.701 109.997C69.7803 110.461 69.82 110.971 69.82 111.527C69.786 112.343 69.6783 113.074 69.497 113.72C69.3157 114.366 69.0437 114.915 68.681 115.369C68.3183 115.822 67.848 116.173 67.27 116.423C66.7033 116.661 66.0063 116.78 65.179 116.78H62.918ZM64.04 115.845H65.128C65.944 115.845 66.607 115.68 67.117 115.352C67.6383 115.023 68.0237 114.541 68.273 113.907C68.5223 113.272 68.6413 112.501 68.63 111.595C68.63 110.665 68.5167 109.872 68.29 109.215C68.0633 108.557 67.7063 108.053 67.219 107.702C66.743 107.35 66.1083 107.175 65.315 107.175H64.04V115.845ZM75.124 116.933C74.5573 116.933 74.0417 116.848 73.577 116.678C73.1123 116.496 72.71 116.236 72.37 115.896C72.0413 115.556 71.7863 115.136 71.605 114.638C71.4237 114.128 71.333 113.55 71.333 112.904C71.333 112.246 71.4237 111.663 71.605 111.153C71.7977 110.643 72.0527 110.218 72.37 109.878C72.6987 109.526 73.0783 109.26 73.509 109.079C73.951 108.897 74.4157 108.807 74.903 108.807C75.345 108.807 75.7587 108.88 76.144 109.028C76.5293 109.175 76.8637 109.402 77.147 109.708C77.4303 110.002 77.6513 110.382 77.81 110.847C77.98 111.311 78.065 111.861 78.065 112.496C78.065 112.586 78.0593 112.683 78.048 112.785C78.048 112.875 78.0423 112.966 78.031 113.057H72.506C72.5287 113.555 72.6137 113.992 72.761 114.366C72.9083 114.728 73.101 115.029 73.339 115.267C73.577 115.493 73.849 115.663 74.155 115.777C74.4723 115.89 74.8067 115.947 75.158 115.947C75.43 115.947 75.685 115.918 75.923 115.862C76.161 115.794 76.382 115.697 76.586 115.573C76.8013 115.437 76.994 115.272 77.164 115.08L77.844 115.743C77.6287 116.003 77.3793 116.224 77.096 116.406C76.824 116.587 76.5237 116.717 76.195 116.797C75.8663 116.887 75.5093 116.933 75.124 116.933ZM72.557 112.105H76.824C76.824 111.742 76.773 111.419 76.671 111.136C76.5803 110.841 76.4443 110.592 76.263 110.388C76.093 110.172 75.8833 110.014 75.634 109.912C75.396 109.798 75.124 109.742 74.818 109.742C74.546 109.742 74.2853 109.787 74.036 109.878C73.798 109.968 73.577 110.116 73.373 110.32C73.169 110.512 72.9933 110.756 72.846 111.051C72.71 111.345 72.6137 111.697 72.557 112.105ZM83.267 116.933C82.8363 116.933 82.4227 116.887 82.026 116.797C81.6407 116.706 81.2723 116.57 80.921 116.389C80.581 116.207 80.2637 115.981 79.969 115.709L80.649 114.553L80.751 114.4L80.853 114.468C80.8757 114.558 80.8983 114.655 80.921 114.757C80.955 114.847 81.0343 114.961 81.159 115.097C81.397 115.335 81.6803 115.533 82.009 115.692C82.349 115.839 82.7797 115.913 83.301 115.913C83.7203 115.913 84.0717 115.862 84.355 115.76C84.6497 115.658 84.8763 115.516 85.035 115.335C85.1937 115.142 85.273 114.921 85.273 114.672C85.273 114.502 85.239 114.354 85.171 114.23C85.103 114.094 84.9897 113.969 84.831 113.856C84.6837 113.742 84.4853 113.629 84.236 113.516C83.9867 113.402 83.6807 113.289 83.318 113.176C82.7287 113.006 82.213 112.807 81.771 112.581C81.329 112.354 80.989 112.093 80.751 111.799C80.513 111.493 80.394 111.147 80.394 110.762C80.394 110.365 80.5017 110.025 80.717 109.742C80.9323 109.447 81.2497 109.22 81.669 109.062C82.0997 108.892 82.6267 108.807 83.25 108.807C83.6127 108.807 83.9413 108.835 84.236 108.892C84.5307 108.937 84.8027 109.011 85.052 109.113C85.3013 109.215 85.528 109.345 85.732 109.504C85.9473 109.651 86.1513 109.827 86.344 110.031L85.647 110.881L85.528 111.017L85.443 110.932C85.4317 110.841 85.4033 110.756 85.358 110.677C85.324 110.586 85.2447 110.478 85.12 110.354C84.8593 110.15 84.5647 109.997 84.236 109.895C83.9073 109.781 83.59 109.725 83.284 109.725C82.8307 109.725 82.4397 109.804 82.111 109.963C81.7823 110.121 81.618 110.365 81.618 110.694C81.618 110.864 81.6747 111.034 81.788 111.204C81.9127 111.362 82.1337 111.527 82.451 111.697C82.7683 111.855 83.2217 112.02 83.811 112.19C84.457 112.394 84.9727 112.603 85.358 112.819C85.7547 113.023 86.038 113.261 86.208 113.533C86.3893 113.805 86.48 114.128 86.48 114.502C86.48 114.932 86.361 115.335 86.123 115.709C85.8963 116.083 85.545 116.383 85.069 116.61C84.593 116.825 83.9923 116.933 83.267 116.933ZM89.2 116.763V115.777H91.189V109.98H89.302V108.994H92.413V115.777H94.232V116.763H89.2ZM91.733 107.362C91.495 107.362 91.291 107.277 91.121 107.107C90.951 106.937 90.866 106.733 90.866 106.495C90.866 106.245 90.9453 106.036 91.104 105.866C91.274 105.696 91.4837 105.611 91.733 105.611C91.971 105.611 92.175 105.701 92.345 105.883C92.5263 106.053 92.617 106.257 92.617 106.495C92.617 106.733 92.5263 106.937 92.345 107.107C92.175 107.277 91.971 107.362 91.733 107.362ZM100.199 119.687C99.655 119.687 99.162 119.641 98.72 119.551C98.2893 119.471 97.9153 119.347 97.598 119.177C97.292 119.018 97.054 118.814 96.884 118.565C96.7253 118.315 96.646 118.021 96.646 117.681C96.646 117.363 96.714 117.08 96.85 116.831C96.986 116.581 97.1617 116.377 97.377 116.219C97.6037 116.049 97.8473 115.924 98.108 115.845L98.618 116.151C98.414 116.275 98.2497 116.4 98.125 116.525C98.0003 116.649 97.9097 116.791 97.853 116.95C97.7963 117.12 97.768 117.318 97.768 117.545C97.768 117.737 97.8247 117.907 97.938 118.055C98.0513 118.213 98.21 118.344 98.414 118.446C98.6293 118.548 98.8843 118.627 99.179 118.684C99.485 118.74 99.8307 118.769 100.216 118.769C100.737 118.769 101.157 118.712 101.474 118.599C101.803 118.497 102.046 118.349 102.205 118.157C102.364 117.975 102.443 117.766 102.443 117.528C102.443 117.278 102.398 117.074 102.307 116.916C102.216 116.757 102.029 116.638 101.746 116.559C101.463 116.479 101.032 116.44 100.454 116.44C100.057 116.44 99.6947 116.423 99.366 116.389C99.0373 116.355 98.7427 116.298 98.482 116.219C98.2213 116.139 98.0003 116.043 97.819 115.93C97.649 115.805 97.5187 115.658 97.428 115.488C97.3373 115.318 97.292 115.119 97.292 114.893C97.292 114.598 97.3713 114.315 97.53 114.043C97.7 113.771 97.9267 113.51 98.21 113.261L98.788 113.72C98.6747 113.844 98.584 113.958 98.516 114.06C98.448 114.15 98.397 114.241 98.363 114.332C98.3403 114.411 98.329 114.502 98.329 114.604C98.329 114.785 98.397 114.932 98.533 115.046C98.6803 115.159 98.9297 115.244 99.281 115.301C99.6323 115.346 100.108 115.369 100.709 115.369C101.31 115.369 101.797 115.42 102.171 115.522C102.545 115.612 102.828 115.748 103.021 115.93C103.225 116.111 103.367 116.321 103.446 116.559C103.525 116.797 103.565 117.057 103.565 117.341C103.565 117.647 103.503 117.936 103.378 118.208C103.265 118.491 103.078 118.74 102.817 118.956C102.556 119.182 102.211 119.358 101.78 119.483C101.349 119.619 100.822 119.687 100.199 119.687ZM99.842 114.128C99.2867 114.128 98.805 114.009 98.397 113.771C97.989 113.521 97.6717 113.193 97.445 112.785C97.2297 112.365 97.122 111.906 97.122 111.408C97.122 110.909 97.2297 110.456 97.445 110.048C97.6717 109.64 97.989 109.317 98.397 109.079C98.805 108.829 99.2867 108.705 99.842 108.705C100.409 108.705 100.89 108.829 101.287 109.079C101.695 109.317 102.007 109.64 102.222 110.048C102.449 110.456 102.562 110.909 102.562 111.408C102.562 111.906 102.449 112.365 102.222 112.785C102.007 113.193 101.695 113.521 101.287 113.771C100.89 114.009 100.409 114.128 99.842 114.128ZM99.842 113.108C100.171 113.108 100.46 113.034 100.709 112.887C100.97 112.728 101.174 112.518 101.321 112.258C101.468 111.997 101.542 111.714 101.542 111.408C101.542 111.09 101.468 110.807 101.321 110.558C101.174 110.297 100.97 110.093 100.709 109.946C100.46 109.787 100.171 109.708 99.842 109.708C99.5133 109.708 99.2187 109.787 98.958 109.946C98.7087 110.093 98.5103 110.297 98.363 110.558C98.2157 110.807 98.142 111.09 98.142 111.408C98.142 111.714 98.2157 111.997 98.363 112.258C98.5103 112.518 98.7087 112.728 98.958 112.887C99.2187 113.034 99.5133 113.108 99.842 113.108ZM102.103 110.252L101.627 109.691C101.956 109.362 102.296 109.124 102.647 108.977C103.01 108.818 103.435 108.756 103.922 108.79L104.075 109.793C103.701 109.759 103.35 109.77 103.021 109.827C102.692 109.883 102.386 110.025 102.103 110.252ZM105.724 116.763V108.994H106.914V110.371C107.118 110.053 107.356 109.781 107.628 109.555C107.9 109.317 108.2 109.135 108.529 109.011C108.858 108.875 109.198 108.807 109.549 108.807C109.98 108.807 110.365 108.914 110.705 109.13C111.045 109.345 111.317 109.691 111.521 110.167C111.725 110.643 111.827 111.272 111.827 112.054V116.763H110.637V112.088C110.637 111.544 110.575 111.113 110.45 110.796C110.325 110.467 110.155 110.235 109.94 110.099C109.725 109.951 109.481 109.878 109.209 109.878C108.948 109.878 108.682 109.934 108.41 110.048C108.149 110.161 107.906 110.325 107.679 110.541C107.452 110.745 107.265 110.994 107.118 111.289C106.982 111.583 106.914 111.918 106.914 112.292V116.763H105.724ZM123.2 116.763V115.777H125.189V109.98H123.302V108.994H126.413V115.777H128.232V116.763H123.2ZM125.733 107.362C125.495 107.362 125.291 107.277 125.121 107.107C124.951 106.937 124.866 106.733 124.866 106.495C124.866 106.245 124.945 106.036 125.104 105.866C125.274 105.696 125.484 105.611 125.733 105.611C125.971 105.611 126.175 105.701 126.345 105.883C126.526 106.053 126.617 106.257 126.617 106.495C126.617 106.733 126.526 106.937 126.345 107.107C126.175 107.277 125.971 107.362 125.733 107.362ZM134.267 116.933C133.836 116.933 133.423 116.887 133.026 116.797C132.641 116.706 132.272 116.57 131.921 116.389C131.581 116.207 131.264 115.981 130.969 115.709L131.649 114.553L131.751 114.4L131.853 114.468C131.876 114.558 131.898 114.655 131.921 114.757C131.955 114.847 132.034 114.961 132.159 115.097C132.397 115.335 132.68 115.533 133.009 115.692C133.349 115.839 133.78 115.913 134.301 115.913C134.72 115.913 135.072 115.862 135.355 115.76C135.65 115.658 135.876 115.516 136.035 115.335C136.194 115.142 136.273 114.921 136.273 114.672C136.273 114.502 136.239 114.354 136.171 114.23C136.103 114.094 135.99 113.969 135.831 113.856C135.684 113.742 135.485 113.629 135.236 113.516C134.987 113.402 134.681 113.289 134.318 113.176C133.729 113.006 133.213 112.807 132.771 112.581C132.329 112.354 131.989 112.093 131.751 111.799C131.513 111.493 131.394 111.147 131.394 110.762C131.394 110.365 131.502 110.025 131.717 109.742C131.932 109.447 132.25 109.22 132.669 109.062C133.1 108.892 133.627 108.807 134.25 108.807C134.613 108.807 134.941 108.835 135.236 108.892C135.531 108.937 135.803 109.011 136.052 109.113C136.301 109.215 136.528 109.345 136.732 109.504C136.947 109.651 137.151 109.827 137.344 110.031L136.647 110.881L136.528 111.017L136.443 110.932C136.432 110.841 136.403 110.756 136.358 110.677C136.324 110.586 136.245 110.478 136.12 110.354C135.859 110.15 135.565 109.997 135.236 109.895C134.907 109.781 134.59 109.725 134.284 109.725C133.831 109.725 133.44 109.804 133.111 109.963C132.782 110.121 132.618 110.365 132.618 110.694C132.618 110.864 132.675 111.034 132.788 111.204C132.913 111.362 133.134 111.527 133.451 111.697C133.768 111.855 134.222 112.02 134.811 112.19C135.457 112.394 135.973 112.603 136.358 112.819C136.755 113.023 137.038 113.261 137.208 113.533C137.389 113.805 137.48 114.128 137.48 114.502C137.48 114.932 137.361 115.335 137.123 115.709C136.896 116.083 136.545 116.383 136.069 116.61C135.593 116.825 134.992 116.933 134.267 116.933ZM148.7 116.763V115.777H150.689V109.98H148.802V108.994H151.913V115.777H153.732V116.763H148.7ZM151.233 107.362C150.995 107.362 150.791 107.277 150.621 107.107C150.451 106.937 150.366 106.733 150.366 106.495C150.366 106.245 150.445 106.036 150.604 105.866C150.774 105.696 150.984 105.611 151.233 105.611C151.471 105.611 151.675 105.701 151.845 105.883C152.026 106.053 152.117 106.257 152.117 106.495C152.117 106.733 152.026 106.937 151.845 107.107C151.675 107.277 151.471 107.362 151.233 107.362ZM156.724 116.763V108.994H157.914V110.371C158.118 110.053 158.356 109.781 158.628 109.555C158.9 109.317 159.2 109.135 159.529 109.011C159.858 108.875 160.198 108.807 160.549 108.807C160.98 108.807 161.365 108.914 161.705 109.13C162.045 109.345 162.317 109.691 162.521 110.167C162.725 110.643 162.827 111.272 162.827 112.054V116.763H161.637V112.088C161.637 111.544 161.575 111.113 161.45 110.796C161.325 110.467 161.155 110.235 160.94 110.099C160.725 109.951 160.481 109.878 160.209 109.878C159.948 109.878 159.682 109.934 159.41 110.048C159.149 110.161 158.906 110.325 158.679 110.541C158.452 110.745 158.265 110.994 158.118 111.289C157.982 111.583 157.914 111.918 157.914 112.292V116.763H156.724ZM169.083 116.882C168.584 116.882 168.176 116.797 167.859 116.627C167.542 116.457 167.298 116.196 167.128 115.845C166.958 115.482 166.845 115.029 166.788 114.485C166.743 113.941 166.731 113.295 166.754 112.547L166.958 107.005L168.233 106.852L168.403 106.835L168.42 106.954C168.363 107.033 168.312 107.112 168.267 107.192C168.233 107.271 168.205 107.407 168.182 107.6L168.029 109.521L168.08 109.827L167.961 112.632C167.927 113.493 167.95 114.162 168.029 114.638C168.108 115.102 168.25 115.425 168.454 115.607C168.658 115.777 168.93 115.862 169.27 115.862C169.644 115.862 169.973 115.788 170.256 115.641C170.551 115.493 170.857 115.306 171.174 115.08L171.548 116.049C171.163 116.332 170.766 116.542 170.358 116.678C169.95 116.814 169.525 116.882 169.083 116.882ZM165.19 108.994H170.783V109.997H165.19V108.994ZM177.124 116.933C176.557 116.933 176.042 116.848 175.577 116.678C175.112 116.496 174.71 116.236 174.37 115.896C174.041 115.556 173.786 115.136 173.605 114.638C173.424 114.128 173.333 113.55 173.333 112.904C173.333 112.246 173.424 111.663 173.605 111.153C173.798 110.643 174.053 110.218 174.37 109.878C174.699 109.526 175.078 109.26 175.509 109.079C175.951 108.897 176.416 108.807 176.903 108.807C177.345 108.807 177.759 108.88 178.144 109.028C178.529 109.175 178.864 109.402 179.147 109.708C179.43 110.002 179.651 110.382 179.81 110.847C179.98 111.311 180.065 111.861 180.065 112.496C180.065 112.586 180.059 112.683 180.048 112.785C180.048 112.875 180.042 112.966 180.031 113.057H174.506C174.529 113.555 174.614 113.992 174.761 114.366C174.908 114.728 175.101 115.029 175.339 115.267C175.577 115.493 175.849 115.663 176.155 115.777C176.472 115.89 176.807 115.947 177.158 115.947C177.43 115.947 177.685 115.918 177.923 115.862C178.161 115.794 178.382 115.697 178.586 115.573C178.801 115.437 178.994 115.272 179.164 115.08L179.844 115.743C179.629 116.003 179.379 116.224 179.096 116.406C178.824 116.587 178.524 116.717 178.195 116.797C177.866 116.887 177.509 116.933 177.124 116.933ZM174.557 112.105H178.824C178.824 111.742 178.773 111.419 178.671 111.136C178.58 110.841 178.444 110.592 178.263 110.388C178.093 110.172 177.883 110.014 177.634 109.912C177.396 109.798 177.124 109.742 176.818 109.742C176.546 109.742 176.285 109.787 176.036 109.878C175.798 109.968 175.577 110.116 175.373 110.32C175.169 110.512 174.993 110.756 174.846 111.051C174.71 111.345 174.614 111.697 174.557 112.105ZM182.343 116.763V115.777H184.638V106.444H182.445V105.458H185.879V115.777H188.157V116.763H182.343ZM190.843 116.763V115.777H193.138V106.444H190.945V105.458H194.379V115.777H196.657V116.763H190.843ZM202.624 116.933C202.057 116.933 201.542 116.848 201.077 116.678C200.612 116.496 200.21 116.236 199.87 115.896C199.541 115.556 199.286 115.136 199.105 114.638C198.924 114.128 198.833 113.55 198.833 112.904C198.833 112.246 198.924 111.663 199.105 111.153C199.298 110.643 199.553 110.218 199.87 109.878C200.199 109.526 200.578 109.26 201.009 109.079C201.451 108.897 201.916 108.807 202.403 108.807C202.845 108.807 203.259 108.88 203.644 109.028C204.029 109.175 204.364 109.402 204.647 109.708C204.93 110.002 205.151 110.382 205.31 110.847C205.48 111.311 205.565 111.861 205.565 112.496C205.565 112.586 205.559 112.683 205.548 112.785C205.548 112.875 205.542 112.966 205.531 113.057H200.006C200.029 113.555 200.114 113.992 200.261 114.366C200.408 114.728 200.601 115.029 200.839 115.267C201.077 115.493 201.349 115.663 201.655 115.777C201.972 115.89 202.307 115.947 202.658 115.947C202.93 115.947 203.185 115.918 203.423 115.862C203.661 115.794 203.882 115.697 204.086 115.573C204.301 115.437 204.494 115.272 204.664 115.08L205.344 115.743C205.129 116.003 204.879 116.224 204.596 116.406C204.324 116.587 204.024 116.717 203.695 116.797C203.366 116.887 203.009 116.933 202.624 116.933ZM200.057 112.105H204.324C204.324 111.742 204.273 111.419 204.171 111.136C204.08 110.841 203.944 110.592 203.763 110.388C203.593 110.172 203.383 110.014 203.134 109.912C202.896 109.798 202.624 109.742 202.318 109.742C202.046 109.742 201.785 109.787 201.536 109.878C201.298 109.968 201.077 110.116 200.873 110.32C200.669 110.512 200.493 110.756 200.346 111.051C200.21 111.345 200.114 111.697 200.057 112.105ZM210.699 119.687C210.155 119.687 209.662 119.641 209.22 119.551C208.789 119.471 208.415 119.347 208.098 119.177C207.792 119.018 207.554 118.814 207.384 118.565C207.225 118.315 207.146 118.021 207.146 117.681C207.146 117.363 207.214 117.08 207.35 116.831C207.486 116.581 207.662 116.377 207.877 116.219C208.104 116.049 208.347 115.924 208.608 115.845L209.118 116.151C208.914 116.275 208.75 116.4 208.625 116.525C208.5 116.649 208.41 116.791 208.353 116.95C208.296 117.12 208.268 117.318 208.268 117.545C208.268 117.737 208.325 117.907 208.438 118.055C208.551 118.213 208.71 118.344 208.914 118.446C209.129 118.548 209.384 118.627 209.679 118.684C209.985 118.74 210.331 118.769 210.716 118.769C211.237 118.769 211.657 118.712 211.974 118.599C212.303 118.497 212.546 118.349 212.705 118.157C212.864 117.975 212.943 117.766 212.943 117.528C212.943 117.278 212.898 117.074 212.807 116.916C212.716 116.757 212.529 116.638 212.246 116.559C211.963 116.479 211.532 116.44 210.954 116.44C210.557 116.44 210.195 116.423 209.866 116.389C209.537 116.355 209.243 116.298 208.982 116.219C208.721 116.139 208.5 116.043 208.319 115.93C208.149 115.805 208.019 115.658 207.928 115.488C207.837 115.318 207.792 115.119 207.792 114.893C207.792 114.598 207.871 114.315 208.03 114.043C208.2 113.771 208.427 113.51 208.71 113.261L209.288 113.72C209.175 113.844 209.084 113.958 209.016 114.06C208.948 114.15 208.897 114.241 208.863 114.332C208.84 114.411 208.829 114.502 208.829 114.604C208.829 114.785 208.897 114.932 209.033 115.046C209.18 115.159 209.43 115.244 209.781 115.301C210.132 115.346 210.608 115.369 211.209 115.369C211.81 115.369 212.297 115.42 212.671 115.522C213.045 115.612 213.328 115.748 213.521 115.93C213.725 116.111 213.867 116.321 213.946 116.559C214.025 116.797 214.065 117.057 214.065 117.341C214.065 117.647 214.003 117.936 213.878 118.208C213.765 118.491 213.578 118.74 213.317 118.956C213.056 119.182 212.711 119.358 212.28 119.483C211.849 119.619 211.322 119.687 210.699 119.687ZM210.342 114.128C209.787 114.128 209.305 114.009 208.897 113.771C208.489 113.521 208.172 113.193 207.945 112.785C207.73 112.365 207.622 111.906 207.622 111.408C207.622 110.909 207.73 110.456 207.945 110.048C208.172 109.64 208.489 109.317 208.897 109.079C209.305 108.829 209.787 108.705 210.342 108.705C210.909 108.705 211.39 108.829 211.787 109.079C212.195 109.317 212.507 109.64 212.722 110.048C212.949 110.456 213.062 110.909 213.062 111.408C213.062 111.906 212.949 112.365 212.722 112.785C212.507 113.193 212.195 113.521 211.787 113.771C211.39 114.009 210.909 114.128 210.342 114.128ZM210.342 113.108C210.671 113.108 210.96 113.034 211.209 112.887C211.47 112.728 211.674 112.518 211.821 112.258C211.968 111.997 212.042 111.714 212.042 111.408C212.042 111.09 211.968 110.807 211.821 110.558C211.674 110.297 211.47 110.093 211.209 109.946C210.96 109.787 210.671 109.708 210.342 109.708C210.013 109.708 209.719 109.787 209.458 109.946C209.209 110.093 209.01 110.297 208.863 110.558C208.716 110.807 208.642 111.09 208.642 111.408C208.642 111.714 208.716 111.997 208.863 112.258C209.01 112.518 209.209 112.728 209.458 112.887C209.719 113.034 210.013 113.108 210.342 113.108ZM212.603 110.252L212.127 109.691C212.456 109.362 212.796 109.124 213.147 108.977C213.51 108.818 213.935 108.756 214.422 108.79L214.575 109.793C214.201 109.759 213.85 109.77 213.521 109.827C213.192 109.883 212.886 110.025 212.603 110.252ZM219.624 116.933C219.057 116.933 218.542 116.848 218.077 116.678C217.612 116.496 217.21 116.236 216.87 115.896C216.541 115.556 216.286 115.136 216.105 114.638C215.924 114.128 215.833 113.55 215.833 112.904C215.833 112.246 215.924 111.663 216.105 111.153C216.298 110.643 216.553 110.218 216.87 109.878C217.199 109.526 217.578 109.26 218.009 109.079C218.451 108.897 218.916 108.807 219.403 108.807C219.845 108.807 220.259 108.88 220.644 109.028C221.029 109.175 221.364 109.402 221.647 109.708C221.93 110.002 222.151 110.382 222.31 110.847C222.48 111.311 222.565 111.861 222.565 112.496C222.565 112.586 222.559 112.683 222.548 112.785C222.548 112.875 222.542 112.966 222.531 113.057H217.006C217.029 113.555 217.114 113.992 217.261 114.366C217.408 114.728 217.601 115.029 217.839 115.267C218.077 115.493 218.349 115.663 218.655 115.777C218.972 115.89 219.307 115.947 219.658 115.947C219.93 115.947 220.185 115.918 220.423 115.862C220.661 115.794 220.882 115.697 221.086 115.573C221.301 115.437 221.494 115.272 221.664 115.08L222.344 115.743C222.129 116.003 221.879 116.224 221.596 116.406C221.324 116.587 221.024 116.717 220.695 116.797C220.366 116.887 220.009 116.933 219.624 116.933ZM217.057 112.105H221.324C221.324 111.742 221.273 111.419 221.171 111.136C221.08 110.841 220.944 110.592 220.763 110.388C220.593 110.172 220.383 110.014 220.134 109.912C219.896 109.798 219.624 109.742 219.318 109.742C219.046 109.742 218.785 109.787 218.536 109.878C218.298 109.968 218.077 110.116 217.873 110.32C217.669 110.512 217.493 110.756 217.346 111.051C217.21 111.345 217.114 111.697 217.057 112.105ZM224.724 116.763V108.994H225.914V110.371C226.118 110.053 226.356 109.781 226.628 109.555C226.9 109.317 227.2 109.135 227.529 109.011C227.858 108.875 228.198 108.807 228.549 108.807C228.98 108.807 229.365 108.914 229.705 109.13C230.045 109.345 230.317 109.691 230.521 110.167C230.725 110.643 230.827 111.272 230.827 112.054V116.763H229.637V112.088C229.637 111.544 229.575 111.113 229.45 110.796C229.325 110.467 229.155 110.235 228.94 110.099C228.725 109.951 228.481 109.878 228.209 109.878C227.948 109.878 227.682 109.934 227.41 110.048C227.149 110.161 226.906 110.325 226.679 110.541C226.452 110.745 226.265 110.994 226.118 111.289C225.982 111.583 225.914 111.918 225.914 112.292V116.763H224.724ZM236.845 116.95C236.278 116.95 235.757 116.848 235.281 116.644C234.805 116.44 234.391 116.156 234.04 115.794C233.7 115.431 233.434 115.006 233.241 114.519C233.048 114.02 232.952 113.476 232.952 112.887C232.952 112.309 233.048 111.776 233.241 111.289C233.434 110.79 233.7 110.359 234.04 109.997C234.391 109.634 234.805 109.351 235.281 109.147C235.757 108.943 236.273 108.841 236.828 108.841C237.463 108.841 238.029 108.971 238.528 109.232C239.038 109.481 239.452 109.832 239.769 110.286L239.004 111.034L238.885 111.153L238.8 111.068C238.8 110.977 238.777 110.892 238.732 110.813C238.698 110.733 238.613 110.626 238.477 110.49C238.228 110.263 237.961 110.104 237.678 110.014C237.395 109.923 237.066 109.878 236.692 109.878C236.363 109.878 236.052 109.946 235.757 110.082C235.462 110.218 235.196 110.416 234.958 110.677C234.731 110.926 234.55 111.232 234.414 111.595C234.278 111.957 234.21 112.36 234.21 112.802C234.21 113.244 234.278 113.652 234.414 114.026C234.55 114.388 234.737 114.706 234.975 114.978C235.213 115.25 235.496 115.465 235.825 115.624C236.165 115.771 236.528 115.845 236.913 115.845C237.174 115.845 237.423 115.811 237.661 115.743C237.899 115.663 238.126 115.556 238.341 115.42C238.556 115.272 238.755 115.097 238.936 114.893L239.65 115.726C239.265 116.134 238.834 116.44 238.358 116.644C237.893 116.848 237.389 116.95 236.845 116.95ZM245.124 116.933C244.557 116.933 244.042 116.848 243.577 116.678C243.112 116.496 242.71 116.236 242.37 115.896C242.041 115.556 241.786 115.136 241.605 114.638C241.424 114.128 241.333 113.55 241.333 112.904C241.333 112.246 241.424 111.663 241.605 111.153C241.798 110.643 242.053 110.218 242.37 109.878C242.699 109.526 243.078 109.26 243.509 109.079C243.951 108.897 244.416 108.807 244.903 108.807C245.345 108.807 245.759 108.88 246.144 109.028C246.529 109.175 246.864 109.402 247.147 109.708C247.43 110.002 247.651 110.382 247.81 110.847C247.98 111.311 248.065 111.861 248.065 112.496C248.065 112.586 248.059 112.683 248.048 112.785C248.048 112.875 248.042 112.966 248.031 113.057H242.506C242.529 113.555 242.614 113.992 242.761 114.366C242.908 114.728 243.101 115.029 243.339 115.267C243.577 115.493 243.849 115.663 244.155 115.777C244.472 115.89 244.807 115.947 245.158 115.947C245.43 115.947 245.685 115.918 245.923 115.862C246.161 115.794 246.382 115.697 246.586 115.573C246.801 115.437 246.994 115.272 247.164 115.08L247.844 115.743C247.629 116.003 247.379 116.224 247.096 116.406C246.824 116.587 246.524 116.717 246.195 116.797C245.866 116.887 245.509 116.933 245.124 116.933ZM242.557 112.105H246.824C246.824 111.742 246.773 111.419 246.671 111.136C246.58 110.841 246.444 110.592 246.263 110.388C246.093 110.172 245.883 110.014 245.634 109.912C245.396 109.798 245.124 109.742 244.818 109.742C244.546 109.742 244.285 109.787 244.036 109.878C243.798 109.968 243.577 110.116 243.373 110.32C243.169 110.512 242.993 110.756 242.846 111.051C242.71 111.345 242.614 111.697 242.557 112.105ZM258.146 116.763V108.994H259.268V109.759C259.393 109.566 259.534 109.402 259.693 109.266C259.863 109.118 260.044 109.005 260.237 108.926C260.441 108.846 260.645 108.807 260.849 108.807C261.076 108.807 261.285 108.858 261.478 108.96C261.671 109.05 261.829 109.181 261.954 109.351C262.09 109.521 262.181 109.719 262.226 109.946C262.328 109.719 262.464 109.521 262.634 109.351C262.815 109.181 263.019 109.05 263.246 108.96C263.484 108.858 263.728 108.807 263.977 108.807C264.238 108.807 264.464 108.858 264.657 108.96C264.85 109.062 265.008 109.203 265.133 109.385C265.258 109.555 265.348 109.764 265.405 110.014C265.462 110.252 265.484 110.512 265.473 110.796V116.763H264.351V111.255C264.351 110.779 264.317 110.433 264.249 110.218C264.192 110.002 264.107 109.866 263.994 109.81C263.881 109.742 263.756 109.708 263.62 109.708C263.405 109.708 263.201 109.81 263.008 110.014C262.827 110.206 262.674 110.45 262.549 110.745C262.436 111.039 262.379 111.334 262.379 111.629V116.763H261.24V111.357C261.24 110.711 261.178 110.28 261.053 110.065C260.94 109.849 260.719 109.742 260.39 109.742C260.265 109.742 260.135 109.787 259.999 109.878C259.874 109.957 259.755 110.076 259.642 110.235C259.529 110.382 259.438 110.569 259.37 110.796C259.302 111.022 259.268 111.283 259.268 111.578V116.763H258.146ZM269.587 116.95C268.703 116.95 268.023 116.751 267.547 116.355C267.071 115.947 266.833 115.431 266.833 114.808C266.833 114.388 266.935 114.014 267.139 113.686C267.343 113.346 267.621 113.062 267.972 112.836C268.335 112.598 268.754 112.416 269.23 112.292C269.706 112.167 270.21 112.105 270.743 112.105C270.936 112.105 271.128 112.11 271.321 112.122C271.525 112.122 271.735 112.133 271.95 112.156C272.177 112.167 272.409 112.19 272.647 112.224L272.681 113.159C272.477 113.125 272.267 113.102 272.052 113.091C271.848 113.068 271.644 113.051 271.44 113.04C271.236 113.028 271.038 113.023 270.845 113.023C270.437 113.023 270.063 113.057 269.723 113.125C269.383 113.193 269.088 113.295 268.839 113.431C268.59 113.567 268.397 113.742 268.261 113.958C268.125 114.173 268.057 114.434 268.057 114.74C268.057 114.978 268.097 115.182 268.176 115.352C268.267 115.51 268.386 115.641 268.533 115.743C268.68 115.833 268.85 115.901 269.043 115.947C269.247 115.992 269.468 116.015 269.706 116.015C270.148 116.015 270.539 115.947 270.879 115.811C271.23 115.663 271.525 115.454 271.763 115.182C272.012 114.91 272.199 114.575 272.324 114.179C272.449 113.782 272.511 113.329 272.511 112.819C272.511 112.048 272.42 111.447 272.239 111.017C272.058 110.586 271.786 110.28 271.423 110.099C271.072 109.917 270.618 109.827 270.063 109.827C269.689 109.827 269.321 109.9 268.958 110.048C268.595 110.184 268.267 110.399 267.972 110.694L267.377 109.912C267.74 109.549 268.159 109.277 268.635 109.096C269.111 108.914 269.615 108.824 270.148 108.824C270.658 108.824 271.123 108.886 271.542 109.011C271.961 109.135 272.318 109.345 272.613 109.64C272.919 109.923 273.151 110.308 273.31 110.796C273.48 111.283 273.565 111.895 273.565 112.632V116.763H272.239V115.573C272.092 115.856 271.91 116.088 271.695 116.27C271.491 116.451 271.27 116.593 271.032 116.695C270.794 116.785 270.55 116.848 270.301 116.882C270.052 116.927 269.814 116.95 269.587 116.95ZM278.478 116.933C278.081 116.933 277.69 116.848 277.305 116.678C276.931 116.508 276.585 116.253 276.268 115.913C275.962 115.573 275.718 115.142 275.537 114.621C275.356 114.099 275.265 113.493 275.265 112.802C275.265 112.088 275.361 111.481 275.554 110.983C275.747 110.473 276.002 110.059 276.319 109.742C276.636 109.413 276.988 109.175 277.373 109.028C277.758 108.869 278.149 108.79 278.546 108.79C278.909 108.79 279.232 108.846 279.515 108.96C279.81 109.073 280.065 109.232 280.28 109.436C280.507 109.628 280.682 109.861 280.807 110.133V105.458H281.929H282.099V105.577C282.031 105.645 281.986 105.718 281.963 105.798C281.952 105.877 281.946 106.013 281.946 106.206L281.963 115.556C281.963 115.76 281.969 115.964 281.98 116.168C282.003 116.36 282.054 116.559 282.133 116.763H280.926C280.869 116.627 280.83 116.491 280.807 116.355C280.784 116.219 280.767 116.088 280.756 115.964C280.756 115.828 280.756 115.692 280.756 115.556C280.597 115.828 280.405 116.071 280.178 116.287C279.951 116.491 279.696 116.649 279.413 116.763C279.13 116.876 278.818 116.933 278.478 116.933ZM278.665 115.862C279.039 115.862 279.356 115.788 279.617 115.641C279.878 115.482 280.087 115.267 280.246 114.995C280.405 114.711 280.518 114.388 280.586 114.026C280.665 113.652 280.705 113.255 280.705 112.836C280.705 112.258 280.631 111.742 280.484 111.289C280.337 110.824 280.104 110.461 279.787 110.201C279.47 109.929 279.062 109.793 278.563 109.793C278.223 109.793 277.917 109.861 277.645 109.997C277.384 110.121 277.163 110.308 276.982 110.558C276.812 110.807 276.682 111.107 276.591 111.459C276.5 111.799 276.455 112.184 276.455 112.615C276.455 113.261 276.54 113.827 276.71 114.315C276.88 114.802 277.129 115.182 277.458 115.454C277.787 115.726 278.189 115.862 278.665 115.862ZM287.624 116.933C287.057 116.933 286.542 116.848 286.077 116.678C285.612 116.496 285.21 116.236 284.87 115.896C284.541 115.556 284.286 115.136 284.105 114.638C283.924 114.128 283.833 113.55 283.833 112.904C283.833 112.246 283.924 111.663 284.105 111.153C284.298 110.643 284.553 110.218 284.87 109.878C285.199 109.526 285.578 109.26 286.009 109.079C286.451 108.897 286.916 108.807 287.403 108.807C287.845 108.807 288.259 108.88 288.644 109.028C289.029 109.175 289.364 109.402 289.647 109.708C289.93 110.002 290.151 110.382 290.31 110.847C290.48 111.311 290.565 111.861 290.565 112.496C290.565 112.586 290.559 112.683 290.548 112.785C290.548 112.875 290.542 112.966 290.531 113.057H285.006C285.029 113.555 285.114 113.992 285.261 114.366C285.408 114.728 285.601 115.029 285.839 115.267C286.077 115.493 286.349 115.663 286.655 115.777C286.972 115.89 287.307 115.947 287.658 115.947C287.93 115.947 288.185 115.918 288.423 115.862C288.661 115.794 288.882 115.697 289.086 115.573C289.301 115.437 289.494 115.272 289.664 115.08L290.344 115.743C290.129 116.003 289.879 116.224 289.596 116.406C289.324 116.587 289.024 116.717 288.695 116.797C288.366 116.887 288.009 116.933 287.624 116.933ZM285.057 112.105H289.324C289.324 111.742 289.273 111.419 289.171 111.136C289.08 110.841 288.944 110.592 288.763 110.388C288.593 110.172 288.383 110.014 288.134 109.912C287.896 109.798 287.624 109.742 287.318 109.742C287.046 109.742 286.785 109.787 286.536 109.878C286.298 109.968 286.077 110.116 285.873 110.32C285.669 110.512 285.493 110.756 285.346 111.051C285.21 111.345 285.114 111.697 285.057 112.105ZM65.757 134.763L62.68 126.994H63.904L66.42 133.369H66.182L67.559 130.207C67.831 129.583 68.0463 129.005 68.205 128.473C68.375 127.94 68.4997 127.447 68.579 126.994H69.735C69.6443 127.47 69.5027 127.991 69.31 128.558C69.1173 129.124 68.8793 129.736 68.596 130.394L66.709 134.763H65.757ZM72.2 134.763V133.777H74.189V127.98H72.302V126.994H75.413V133.777H77.232V134.763H72.2ZM74.733 125.362C74.495 125.362 74.291 125.277 74.121 125.107C73.951 124.937 73.866 124.733 73.866 124.495C73.866 124.245 73.9453 124.036 74.104 123.866C74.274 123.696 74.4837 123.611 74.733 123.611C74.971 123.611 75.175 123.701 75.345 123.883C75.5263 124.053 75.617 124.257 75.617 124.495C75.617 124.733 75.5263 124.937 75.345 125.107C75.175 125.277 74.971 125.362 74.733 125.362ZM83.267 134.933C82.8363 134.933 82.4227 134.887 82.026 134.797C81.6407 134.706 81.2723 134.57 80.921 134.389C80.581 134.207 80.2637 133.981 79.969 133.709L80.649 132.553L80.751 132.4L80.853 132.468C80.8757 132.558 80.8983 132.655 80.921 132.757C80.955 132.847 81.0343 132.961 81.159 133.097C81.397 133.335 81.6803 133.533 82.009 133.692C82.349 133.839 82.7797 133.913 83.301 133.913C83.7203 133.913 84.0717 133.862 84.355 133.76C84.6497 133.658 84.8763 133.516 85.035 133.335C85.1937 133.142 85.273 132.921 85.273 132.672C85.273 132.502 85.239 132.354 85.171 132.23C85.103 132.094 84.9897 131.969 84.831 131.856C84.6837 131.742 84.4853 131.629 84.236 131.516C83.9867 131.402 83.6807 131.289 83.318 131.176C82.7287 131.006 82.213 130.807 81.771 130.581C81.329 130.354 80.989 130.093 80.751 129.799C80.513 129.493 80.394 129.147 80.394 128.762C80.394 128.365 80.5017 128.025 80.717 127.742C80.9323 127.447 81.2497 127.22 81.669 127.062C82.0997 126.892 82.6267 126.807 83.25 126.807C83.6127 126.807 83.9413 126.835 84.236 126.892C84.5307 126.937 84.8027 127.011 85.052 127.113C85.3013 127.215 85.528 127.345 85.732 127.504C85.9473 127.651 86.1513 127.827 86.344 128.031L85.647 128.881L85.528 129.017L85.443 128.932C85.4317 128.841 85.4033 128.756 85.358 128.677C85.324 128.586 85.2447 128.478 85.12 128.354C84.8593 128.15 84.5647 127.997 84.236 127.895C83.9073 127.781 83.59 127.725 83.284 127.725C82.8307 127.725 82.4397 127.804 82.111 127.963C81.7823 128.121 81.618 128.365 81.618 128.694C81.618 128.864 81.6747 129.034 81.788 129.204C81.9127 129.362 82.1337 129.527 82.451 129.697C82.7683 129.855 83.2217 130.02 83.811 130.19C84.457 130.394 84.9727 130.603 85.358 130.819C85.7547 131.023 86.038 131.261 86.208 131.533C86.3893 131.805 86.48 132.128 86.48 132.502C86.48 132.932 86.361 133.335 86.123 133.709C85.8963 134.083 85.545 134.383 85.069 134.61C84.593 134.825 83.9923 134.933 83.267 134.933ZM91.257 134.95C90.951 134.95 90.662 134.904 90.39 134.814C90.118 134.723 89.8687 134.587 89.642 134.406C89.4267 134.213 89.2397 133.975 89.081 133.692C88.9223 133.408 88.7977 133.068 88.707 132.672C88.6277 132.275 88.588 131.827 88.588 131.329L88.605 126.994H89.795V131.329C89.795 131.816 89.8403 132.23 89.931 132.57C90.0217 132.91 90.1463 133.182 90.305 133.386C90.475 133.59 90.6677 133.737 90.883 133.828C91.0983 133.918 91.325 133.964 91.563 133.964C91.835 133.964 92.0957 133.913 92.345 133.811C92.5943 133.697 92.8153 133.533 93.008 133.318C93.212 133.102 93.3707 132.825 93.484 132.485C93.5973 132.145 93.654 131.742 93.654 131.278V126.994H94.844V133.556C94.844 133.76 94.8497 133.964 94.861 134.168C94.8837 134.36 94.9347 134.559 95.014 134.763H93.841C93.7843 134.627 93.7447 134.496 93.722 134.372C93.6993 134.236 93.6823 134.1 93.671 133.964C93.671 133.828 93.671 133.697 93.671 133.573C93.5463 133.788 93.399 133.981 93.229 134.151C93.059 134.321 92.8663 134.468 92.651 134.593C92.447 134.706 92.226 134.791 91.988 134.848C91.7613 134.916 91.5177 134.95 91.257 134.95ZM99.587 134.95C98.703 134.95 98.023 134.751 97.547 134.355C97.071 133.947 96.833 133.431 96.833 132.808C96.833 132.388 96.935 132.014 97.139 131.686C97.343 131.346 97.6207 131.062 97.972 130.836C98.3347 130.598 98.754 130.416 99.23 130.292C99.706 130.167 100.21 130.105 100.743 130.105C100.936 130.105 101.128 130.11 101.321 130.122C101.525 130.122 101.735 130.133 101.95 130.156C102.177 130.167 102.409 130.19 102.647 130.224L102.681 131.159C102.477 131.125 102.267 131.102 102.052 131.091C101.848 131.068 101.644 131.051 101.44 131.04C101.236 131.028 101.038 131.023 100.845 131.023C100.437 131.023 100.063 131.057 99.723 131.125C99.383 131.193 99.0883 131.295 98.839 131.431C98.5897 131.567 98.397 131.742 98.261 131.958C98.125 132.173 98.057 132.434 98.057 132.74C98.057 132.978 98.0967 133.182 98.176 133.352C98.2667 133.51 98.3857 133.641 98.533 133.743C98.6803 133.833 98.8503 133.901 99.043 133.947C99.247 133.992 99.468 134.015 99.706 134.015C100.148 134.015 100.539 133.947 100.879 133.811C101.23 133.663 101.525 133.454 101.763 133.182C102.012 132.91 102.199 132.575 102.324 132.179C102.449 131.782 102.511 131.329 102.511 130.819C102.511 130.048 102.42 129.447 102.239 129.017C102.058 128.586 101.786 128.28 101.423 128.099C101.072 127.917 100.618 127.827 100.063 127.827C99.689 127.827 99.3207 127.9 98.958 128.048C98.5953 128.184 98.2667 128.399 97.972 128.694L97.377 127.912C97.7397 127.549 98.159 127.277 98.635 127.096C99.111 126.914 99.6153 126.824 100.148 126.824C100.658 126.824 101.123 126.886 101.542 127.011C101.961 127.135 102.318 127.345 102.613 127.64C102.919 127.923 103.151 128.308 103.31 128.796C103.48 129.283 103.565 129.895 103.565 130.632V134.763H102.239V133.573C102.092 133.856 101.91 134.088 101.695 134.27C101.491 134.451 101.27 134.593 101.032 134.695C100.794 134.785 100.55 134.848 100.301 134.882C100.052 134.927 99.8137 134.95 99.587 134.95ZM105.843 134.763V133.777H108.138V124.444H105.945V123.458H109.379V133.777H111.657V134.763H105.843Z" fill="white" fill-opacity="0.76"/>
<g clip-path="url(#clip0_71_42)">
<path d="M432 87.0769C432 87.6184 432.45 88.0615 433 88.0615H434V91.5077C434 92.3249 434.67 92.9846 435.5 92.9846C436.33 92.9846 437 92.3249 437 91.5077V88.0615H439V91.5077C439 92.3249 439.67 92.9846 440.5 92.9846C441.33 92.9846 442 92.3249 442 91.5077V88.0615H443C443.55 88.0615 444 87.6184 444 87.0769V77.2307H432V87.0769ZM429.5 77.2307C428.67 77.2307 428 77.8904 428 78.7077V85.6C428 86.4172 428.67 87.0769 429.5 87.0769C430.33 87.0769 431 86.4172 431 85.6V78.7077C431 77.8904 430.33 77.2307 429.5 77.2307ZM446.5 77.2307C445.67 77.2307 445 77.8904 445 78.7077V85.6C445 86.4172 445.67 87.0769 446.5 87.0769C447.33 87.0769 448 86.4172 448 85.6V78.7077C448 77.8904 447.33 77.2307 446.5 77.2307ZM441.53 71.4806L442.83 70.2006C443.03 70.0037 443.03 69.6984 442.83 69.5015C442.63 69.3046 442.32 69.3046 442.12 69.5015L440.64 70.9587C439.85 70.5649 438.95 70.3384 438 70.3384C437.04 70.3384 436.14 70.5649 435.34 70.9587L433.85 69.5015C433.65 69.3046 433.34 69.3046 433.14 69.5015C432.94 69.6984 432.94 70.0037 433.14 70.2006L434.45 71.4904C432.97 72.5637 432 74.2867 432 76.2461H444C444 74.2867 443.03 72.5538 441.53 71.4806V71.4806ZM436 74.2769H435V73.2923H436V74.2769ZM441 74.2769H440V73.2923H441V74.2769Z" fill="white"/>
</g>
<defs>
<filter id="filter0_dd_71_42" x="0" y="0" width="532" height="196" filterUnits="userSpaceOnUse" color-interpolation-filters="sRGB">
<feFlood flood-opacity="0" result="BackgroundImageFix"/>
<feColorMatrix in="SourceAlpha" type="matrix" values="0 0 0 0 0 0 0 0 0 0 0 0 0 0 0 0 0 0 127 0" result="hardAlpha"/>
<feOffset dx="10" dy="10"/>
<feGaussianBlur stdDeviation="15"/>
<feColorMatrix type="matrix" values="0 0 0 0 0 0 0 0 0 0.0188393 0 0 0 0 0.0412109 0 0 0 1 0"/>
<feBlend mode="normal" in2="BackgroundImageFix" result="effect1_dropShadow_71_42"/>
<feColorMatrix in="SourceAlpha" type="matrix" values="0 0 0 0 0 0 0 0 0 0 0 0 0 0 0 0 0 0 127 0" result="hardAlpha"/>
<feMorphology radius="10" operator="dilate" in="SourceAlpha" result="effect2_dropShadow_71_42"/>
<feOffset/>
<feGaussianBlur stdDeviation="9"/>
<feColorMatrix type="matrix" values="0 0 0 0 0.0666319 0 0 0 0 0.748663 0 0 0 0 0.841667 0 0 0 1 0"/>
<feBlend mode="normal" in2="effect1_dropShadow_71_42" result="effect2_dropShadow_71_42"/>
<feBlend mode="normal" in="SourceGraphic" in2="effect2_dropShadow_71_42" result="shape"/>
</filter>
<clipPath id="clip0_71_42">
<rect width="24" height="23.6308" fill="white" transform="translate(426 69.3538)"/>
</clipPath>
</defs>
</svg>
