<svg width="532" height="196" viewBox="0 0 532 196" fill="none" xmlns="http://www.w3.org/2000/svg">
<g filter="url(#filter0_dd_71_48)">
<rect x="28" y="28" width="464" height="128" rx="20" fill="#00050B"/>
</g>
<path d="M63.38 83.5685V64.8485H68.03C69.13 64.8485 70.05 64.9485 70.79 65.1485C71.55 65.3485 72.19 65.6385 72.71 66.0185C73.25 66.3985 73.72 66.8685 74.12 67.4285C74.54 67.9885 74.89 68.6185 75.17 69.3185C75.47 70.0185 75.69 70.7885 75.83 71.6285C75.97 72.4485 76.04 73.3385 76.04 74.2985C76.02 75.7385 75.84 77.0285 75.5 78.1685C75.18 79.3085 74.68 80.2785 74 81.0785C73.34 81.8785 72.49 82.4985 71.45 82.9385C70.41 83.3585 69.15 83.5685 67.67 83.5685H63.38ZM66.23 81.2285H67.61C68.95 81.2285 70.02 80.9585 70.82 80.4185C71.64 79.8585 72.23 79.0685 72.59 78.0485C72.97 77.0085 73.16 75.7885 73.16 74.3885C73.16 72.9085 72.99 71.6385 72.65 70.5785C72.31 69.5185 71.76 68.6985 71 68.1185C70.26 67.5185 69.23 67.2185 67.91 67.2185H66.23V81.2285ZM85.13 83.8685C84.13 83.8685 83.21 83.7085 82.37 83.3885C81.53 83.0685 80.8 82.6085 80.18 82.0085C79.58 81.3885 79.11 80.6285 78.77 79.7285C78.43 78.8285 78.26 77.8085 78.26 76.6685C78.26 75.5085 78.43 74.4785 78.77 73.5785C79.11 72.6585 79.57 71.8885 80.15 71.2685C80.75 70.6485 81.44 70.1685 82.22 69.8285C83.02 69.4885 83.87 69.3185 84.77 69.3185C85.55 69.3185 86.29 69.4585 86.99 69.7385C87.71 70.0185 88.33 70.4385 88.85 70.9985C89.39 71.5385 89.81 72.2285 90.11 73.0685C90.43 73.9085 90.59 74.8885 90.59 76.0085C90.59 76.2085 90.59 76.4385 90.59 76.6985C90.59 76.9385 90.58 77.1485 90.56 77.3285H81.14C81.18 78.0485 81.32 78.6785 81.56 79.2185C81.8 79.7385 82.1 80.1685 82.46 80.5085C82.84 80.8485 83.27 81.0985 83.75 81.2585C84.23 81.4185 84.73 81.4985 85.25 81.4985C85.71 81.4985 86.13 81.4585 86.51 81.3785C86.91 81.2785 87.29 81.1285 87.65 80.9285C88.01 80.7285 88.34 80.4585 88.64 80.1185L90.2 81.6485C89.78 82.1485 89.31 82.5685 88.79 82.9085C88.27 83.2285 87.7 83.4685 87.08 83.6285C86.48 83.7885 85.83 83.8685 85.13 83.8685ZM81.2 75.0785H87.68C87.68 74.5185 87.61 74.0285 87.47 73.6085C87.33 73.1885 87.12 72.8285 86.84 72.5285C86.58 72.2285 86.26 72.0085 85.88 71.8685C85.5 71.7085 85.08 71.6285 84.62 71.6285C84.18 71.6285 83.77 71.6985 83.39 71.8385C83.03 71.9785 82.7 72.1885 82.4 72.4685C82.1 72.7485 81.84 73.1085 81.62 73.5485C81.42 73.9685 81.28 74.4785 81.2 75.0785ZM98.27 83.5385L92.99 69.6485H96.08L99.92 80.0885H99.47L101.54 75.1985C101.94 74.1785 102.27 73.2085 102.53 72.2885C102.79 71.3685 102.96 70.4885 103.04 69.6485H105.83C105.71 70.5285 105.48 71.4685 105.14 72.4685C104.82 73.4485 104.44 74.4685 104 75.5285L100.64 83.5385H98.27ZM115.13 83.8685C114.13 83.8685 113.21 83.7085 112.37 83.3885C111.53 83.0685 110.8 82.6085 110.18 82.0085C109.58 81.3885 109.11 80.6285 108.77 79.7285C108.43 78.8285 108.26 77.8085 108.26 76.6685C108.26 75.5085 108.43 74.4785 108.77 73.5785C109.11 72.6585 109.57 71.8885 110.15 71.2685C110.75 70.6485 111.44 70.1685 112.22 69.8285C113.02 69.4885 113.87 69.3185 114.77 69.3185C115.55 69.3185 116.29 69.4585 116.99 69.7385C117.71 70.0185 118.33 70.4385 118.85 70.9985C119.39 71.5385 119.81 72.2285 120.11 73.0685C120.43 73.9085 120.59 74.8885 120.59 76.0085C120.59 76.2085 120.59 76.4385 120.59 76.6985C120.59 76.9385 120.58 77.1485 120.56 77.3285H111.14C111.18 78.0485 111.32 78.6785 111.56 79.2185C111.8 79.7385 112.1 80.1685 112.46 80.5085C112.84 80.8485 113.27 81.0985 113.75 81.2585C114.23 81.4185 114.73 81.4985 115.25 81.4985C115.71 81.4985 116.13 81.4585 116.51 81.3785C116.91 81.2785 117.29 81.1285 117.65 80.9285C118.01 80.7285 118.34 80.4585 118.64 80.1185L120.2 81.6485C119.78 82.1485 119.31 82.5685 118.79 82.9085C118.27 83.2285 117.7 83.4685 117.08 83.6285C116.48 83.7885 115.83 83.8685 115.13 83.8685ZM111.2 75.0785H117.68C117.68 74.5185 117.61 74.0285 117.47 73.6085C117.33 73.1885 117.12 72.8285 116.84 72.5285C116.58 72.2285 116.26 72.0085 115.88 71.8685C115.5 71.7085 115.08 71.6285 114.62 71.6285C114.18 71.6285 113.77 71.6985 113.39 71.8385C113.03 71.9785 112.7 72.1885 112.4 72.4685C112.1 72.7485 111.84 73.1085 111.62 73.5485C111.42 73.9685 111.28 74.4785 111.2 75.0785ZM124.04 83.5385V81.1685H128V65.8385H124.22V63.4685H131.03V81.1685H134.96V83.5385H124.04ZM144.5 83.8385C143.24 83.8385 142.12 83.5385 141.14 82.9385C140.16 82.3185 139.38 81.4685 138.8 80.3885C138.22 79.2885 137.93 78.0285 137.93 76.6085C137.93 75.2085 138.22 73.9685 138.8 72.8885C139.38 71.7885 140.16 70.9285 141.14 70.3085C142.12 69.6685 143.24 69.3485 144.5 69.3485C145.74 69.3485 146.85 69.6685 147.83 70.3085C148.83 70.9285 149.62 71.7885 150.2 72.8885C150.78 73.9685 151.07 75.2085 151.07 76.6085C151.07 78.0085 150.78 79.2585 150.2 80.3585C149.62 81.4385 148.83 82.2885 147.83 82.9085C146.85 83.5285 145.74 83.8385 144.5 83.8385ZM144.5 81.4085C145.18 81.4085 145.78 81.2085 146.3 80.8085C146.84 80.3885 147.26 79.8185 147.56 79.0985C147.86 78.3785 148.01 77.5385 148.01 76.5785C148.01 75.5985 147.86 74.7485 147.56 74.0285C147.26 73.3085 146.84 72.7485 146.3 72.3485C145.78 71.9485 145.18 71.7485 144.5 71.7485C143.82 71.7485 143.21 71.9485 142.67 72.3485C142.15 72.7485 141.74 73.3085 141.44 74.0285C141.14 74.7485 140.99 75.5985 140.99 76.5785C140.99 77.5385 141.14 78.3785 141.44 79.0985C141.74 79.8185 142.15 80.3885 142.67 80.8085C143.21 81.2085 143.82 81.4085 144.5 81.4085ZM153.56 88.5485V69.6485H156.53V71.8685C156.79 71.2685 157.12 70.7885 157.52 70.4285C157.94 70.0485 158.4 69.7785 158.9 69.6185C159.4 69.4385 159.94 69.3485 160.52 69.3485C161.28 69.3485 161.99 69.5085 162.65 69.8285C163.33 70.1285 163.93 70.5785 164.45 71.1785C164.97 71.7785 165.38 72.5285 165.68 73.4285C165.98 74.3285 166.13 75.3785 166.13 76.5785C166.13 77.7985 165.97 78.8685 165.65 79.7885C165.33 80.7085 164.9 81.4785 164.36 82.0985C163.84 82.6985 163.24 83.1485 162.56 83.4485C161.88 83.7485 161.18 83.8985 160.46 83.8985C159.96 83.8985 159.46 83.8285 158.96 83.6885C158.48 83.5685 158.04 83.3785 157.64 83.1185C157.24 82.8385 156.89 82.5185 156.59 82.1585V88.5485H153.56ZM159.71 81.4985C160.17 81.4985 160.6 81.4185 161 81.2585C161.4 81.0785 161.76 80.8085 162.08 80.4485C162.4 80.0685 162.65 79.5585 162.83 78.9185C163.01 78.2585 163.1 77.4585 163.1 76.5185C163.1 75.5185 162.97 74.6685 162.71 73.9685C162.47 73.2685 162.11 72.7285 161.63 72.3485C161.17 71.9685 160.61 71.7685 159.95 71.7485C159.45 71.7285 158.99 71.8185 158.57 72.0185C158.15 72.1985 157.79 72.4985 157.49 72.9185C157.19 73.3185 156.96 73.8585 156.8 74.5385C156.66 75.1985 156.59 75.9885 156.59 76.9085C156.59 77.5285 156.63 78.0885 156.71 78.5885C156.81 79.0685 156.95 79.4985 157.13 79.8785C157.31 80.2385 157.52 80.5385 157.76 80.7785C158.02 81.0185 158.31 81.1985 158.63 81.3185C158.97 81.4385 159.33 81.4985 159.71 81.4985Z" fill="white"/>
<path d="M66.845 116.933C66.267 116.933 65.7287 116.831 65.23 116.627C64.7313 116.411 64.2893 116.083 63.904 115.641C63.53 115.199 63.2353 114.638 63.02 113.958C62.8047 113.278 62.697 112.467 62.697 111.527C62.697 110.699 62.7763 109.98 62.935 109.368C63.0937 108.744 63.309 108.223 63.581 107.804C63.853 107.384 64.1647 107.05 64.516 106.801C64.8673 106.551 65.2357 106.37 65.621 106.257C66.0063 106.143 66.3917 106.087 66.777 106.087C67.5477 106.087 68.205 106.279 68.749 106.665C69.293 107.039 69.701 107.543 69.973 108.178L68.953 108.654L68.8 108.722L68.749 108.603C68.783 108.512 68.783 108.433 68.749 108.365C68.715 108.285 68.6527 108.166 68.562 108.008C68.2787 107.622 67.984 107.367 67.678 107.243C67.3833 107.107 67.0717 107.039 66.743 107.039C66.301 107.039 65.8987 107.141 65.536 107.345C65.1847 107.537 64.8787 107.826 64.618 108.212C64.3687 108.586 64.176 109.045 64.04 109.589C63.9153 110.133 63.853 110.75 63.853 111.442C63.853 112.11 63.9267 112.717 64.074 113.261C64.2327 113.805 64.4423 114.275 64.703 114.672C64.975 115.068 65.2867 115.374 65.638 115.59C66.0007 115.805 66.386 115.913 66.794 115.913C67.0773 115.913 67.3493 115.862 67.61 115.76C67.882 115.658 68.1313 115.51 68.358 115.318C68.5847 115.114 68.7773 114.881 68.936 114.621L69.82 115.199C69.48 115.765 69.072 116.196 68.596 116.491C68.12 116.785 67.5363 116.933 66.845 116.933ZM74.75 116.899C74.0473 116.899 73.424 116.729 72.88 116.389C72.3473 116.037 71.928 115.561 71.622 114.961C71.316 114.349 71.163 113.652 71.163 112.87C71.163 112.076 71.316 111.379 71.622 110.779C71.928 110.167 72.3473 109.691 72.88 109.351C73.424 108.999 74.0473 108.824 74.75 108.824C75.4527 108.824 76.0703 108.999 76.603 109.351C77.147 109.691 77.572 110.167 77.878 110.779C78.184 111.379 78.337 112.076 78.337 112.87C78.337 113.652 78.184 114.349 77.878 114.961C77.572 115.561 77.147 116.037 76.603 116.389C76.0703 116.729 75.4527 116.899 74.75 116.899ZM74.75 115.879C75.2033 115.879 75.6 115.748 75.94 115.488C76.28 115.227 76.5463 114.87 76.739 114.417C76.943 113.963 77.045 113.442 77.045 112.853C77.045 112.263 76.943 111.742 76.739 111.289C76.5463 110.835 76.28 110.484 75.94 110.235C75.6 109.974 75.2033 109.844 74.75 109.844C74.308 109.844 73.9113 109.974 73.56 110.235C73.22 110.484 72.948 110.835 72.744 111.289C72.5513 111.742 72.455 112.263 72.455 112.853C72.455 113.442 72.5513 113.963 72.744 114.417C72.948 114.87 73.22 115.227 73.56 115.488C73.9113 115.748 74.308 115.879 74.75 115.879ZM82.978 116.933C82.5813 116.933 82.1903 116.848 81.805 116.678C81.431 116.508 81.0853 116.253 80.768 115.913C80.462 115.573 80.2183 115.142 80.037 114.621C79.8557 114.099 79.765 113.493 79.765 112.802C79.765 112.088 79.8613 111.481 80.054 110.983C80.2467 110.473 80.5017 110.059 80.819 109.742C81.1363 109.413 81.4877 109.175 81.873 109.028C82.2583 108.869 82.6493 108.79 83.046 108.79C83.4087 108.79 83.7317 108.846 84.015 108.96C84.3097 109.073 84.5647 109.232 84.78 109.436C85.0067 109.628 85.1823 109.861 85.307 110.133V105.458H86.429H86.599V105.577C86.531 105.645 86.4857 105.718 86.463 105.798C86.4517 105.877 86.446 106.013 86.446 106.206L86.463 115.556C86.463 115.76 86.4687 115.964 86.48 116.168C86.5027 116.36 86.5537 116.559 86.633 116.763H85.426C85.3693 116.627 85.3297 116.491 85.307 116.355C85.2843 116.219 85.2673 116.088 85.256 115.964C85.256 115.828 85.256 115.692 85.256 115.556C85.0973 115.828 84.9047 116.071 84.678 116.287C84.4513 116.491 84.1963 116.649 83.913 116.763C83.6297 116.876 83.318 116.933 82.978 116.933ZM83.165 115.862C83.539 115.862 83.8563 115.788 84.117 115.641C84.3777 115.482 84.5873 115.267 84.746 114.995C84.9047 114.711 85.018 114.388 85.086 114.026C85.1653 113.652 85.205 113.255 85.205 112.836C85.205 112.258 85.1313 111.742 84.984 111.289C84.8367 110.824 84.6043 110.461 84.287 110.201C83.9697 109.929 83.5617 109.793 83.063 109.793C82.723 109.793 82.417 109.861 82.145 109.997C81.8843 110.121 81.6633 110.308 81.482 110.558C81.312 110.807 81.1817 111.107 81.091 111.459C81.0003 111.799 80.955 112.184 80.955 112.615C80.955 113.261 81.04 113.827 81.21 114.315C81.38 114.802 81.6293 115.182 81.958 115.454C82.2867 115.726 82.689 115.862 83.165 115.862ZM92.124 116.933C91.5573 116.933 91.0417 116.848 90.577 116.678C90.1123 116.496 89.71 116.236 89.37 115.896C89.0413 115.556 88.7863 115.136 88.605 114.638C88.4237 114.128 88.333 113.55 88.333 112.904C88.333 112.246 88.4237 111.663 88.605 111.153C88.7977 110.643 89.0527 110.218 89.37 109.878C89.6987 109.526 90.0783 109.26 90.509 109.079C90.951 108.897 91.4157 108.807 91.903 108.807C92.345 108.807 92.7587 108.88 93.144 109.028C93.5293 109.175 93.8637 109.402 94.147 109.708C94.4303 110.002 94.6513 110.382 94.81 110.847C94.98 111.311 95.065 111.861 95.065 112.496C95.065 112.586 95.0593 112.683 95.048 112.785C95.048 112.875 95.0423 112.966 95.031 113.057H89.506C89.5287 113.555 89.6137 113.992 89.761 114.366C89.9083 114.728 90.101 115.029 90.339 115.267C90.577 115.493 90.849 115.663 91.155 115.777C91.4723 115.89 91.8067 115.947 92.158 115.947C92.43 115.947 92.685 115.918 92.923 115.862C93.161 115.794 93.382 115.697 93.586 115.573C93.8013 115.437 93.994 115.272 94.164 115.08L94.844 115.743C94.6287 116.003 94.3793 116.224 94.096 116.406C93.824 116.587 93.5237 116.717 93.195 116.797C92.8663 116.887 92.5093 116.933 92.124 116.933ZM89.557 112.105H93.824C93.824 111.742 93.773 111.419 93.671 111.136C93.5803 110.841 93.4443 110.592 93.263 110.388C93.093 110.172 92.8833 110.014 92.634 109.912C92.396 109.798 92.124 109.742 91.818 109.742C91.546 109.742 91.2853 109.787 91.036 109.878C90.798 109.968 90.577 110.116 90.373 110.32C90.169 110.512 89.9933 110.756 89.846 111.051C89.71 111.345 89.6137 111.697 89.557 112.105ZM109.345 116.95C108.778 116.95 108.257 116.848 107.781 116.644C107.305 116.44 106.891 116.156 106.54 115.794C106.2 115.431 105.934 115.006 105.741 114.519C105.548 114.02 105.452 113.476 105.452 112.887C105.452 112.309 105.548 111.776 105.741 111.289C105.934 110.79 106.2 110.359 106.54 109.997C106.891 109.634 107.305 109.351 107.781 109.147C108.257 108.943 108.773 108.841 109.328 108.841C109.963 108.841 110.529 108.971 111.028 109.232C111.538 109.481 111.952 109.832 112.269 110.286L111.504 111.034L111.385 111.153L111.3 111.068C111.3 110.977 111.277 110.892 111.232 110.813C111.198 110.733 111.113 110.626 110.977 110.49C110.728 110.263 110.461 110.104 110.178 110.014C109.895 109.923 109.566 109.878 109.192 109.878C108.863 109.878 108.552 109.946 108.257 110.082C107.962 110.218 107.696 110.416 107.458 110.677C107.231 110.926 107.05 111.232 106.914 111.595C106.778 111.957 106.71 112.36 106.71 112.802C106.71 113.244 106.778 113.652 106.914 114.026C107.05 114.388 107.237 114.706 107.475 114.978C107.713 115.25 107.996 115.465 108.325 115.624C108.665 115.771 109.028 115.845 109.413 115.845C109.674 115.845 109.923 115.811 110.161 115.743C110.399 115.663 110.626 115.556 110.841 115.42C111.056 115.272 111.255 115.097 111.436 114.893L112.15 115.726C111.765 116.134 111.334 116.44 110.858 116.644C110.393 116.848 109.889 116.95 109.345 116.95ZM116.587 116.95C115.703 116.95 115.023 116.751 114.547 116.355C114.071 115.947 113.833 115.431 113.833 114.808C113.833 114.388 113.935 114.014 114.139 113.686C114.343 113.346 114.621 113.062 114.972 112.836C115.335 112.598 115.754 112.416 116.23 112.292C116.706 112.167 117.21 112.105 117.743 112.105C117.936 112.105 118.128 112.11 118.321 112.122C118.525 112.122 118.735 112.133 118.95 112.156C119.177 112.167 119.409 112.19 119.647 112.224L119.681 113.159C119.477 113.125 119.267 113.102 119.052 113.091C118.848 113.068 118.644 113.051 118.44 113.04C118.236 113.028 118.038 113.023 117.845 113.023C117.437 113.023 117.063 113.057 116.723 113.125C116.383 113.193 116.088 113.295 115.839 113.431C115.59 113.567 115.397 113.742 115.261 113.958C115.125 114.173 115.057 114.434 115.057 114.74C115.057 114.978 115.097 115.182 115.176 115.352C115.267 115.51 115.386 115.641 115.533 115.743C115.68 115.833 115.85 115.901 116.043 115.947C116.247 115.992 116.468 116.015 116.706 116.015C117.148 116.015 117.539 115.947 117.879 115.811C118.23 115.663 118.525 115.454 118.763 115.182C119.012 114.91 119.199 114.575 119.324 114.179C119.449 113.782 119.511 113.329 119.511 112.819C119.511 112.048 119.42 111.447 119.239 111.017C119.058 110.586 118.786 110.28 118.423 110.099C118.072 109.917 117.618 109.827 117.063 109.827C116.689 109.827 116.321 109.9 115.958 110.048C115.595 110.184 115.267 110.399 114.972 110.694L114.377 109.912C114.74 109.549 115.159 109.277 115.635 109.096C116.111 108.914 116.615 108.824 117.148 108.824C117.658 108.824 118.123 108.886 118.542 109.011C118.961 109.135 119.318 109.345 119.613 109.64C119.919 109.923 120.151 110.308 120.31 110.796C120.48 111.283 120.565 111.895 120.565 112.632V116.763H119.239V115.573C119.092 115.856 118.91 116.088 118.695 116.27C118.491 116.451 118.27 116.593 118.032 116.695C117.794 116.785 117.55 116.848 117.301 116.882C117.052 116.927 116.814 116.95 116.587 116.95ZM122.724 116.763V108.994H123.914V110.371C124.118 110.053 124.356 109.781 124.628 109.555C124.9 109.317 125.2 109.135 125.529 109.011C125.858 108.875 126.198 108.807 126.549 108.807C126.98 108.807 127.365 108.914 127.705 109.13C128.045 109.345 128.317 109.691 128.521 110.167C128.725 110.643 128.827 111.272 128.827 112.054V116.763H127.637V112.088C127.637 111.544 127.575 111.113 127.45 110.796C127.325 110.467 127.155 110.235 126.94 110.099C126.725 109.951 126.481 109.878 126.209 109.878C125.948 109.878 125.682 109.934 125.41 110.048C125.149 110.161 124.906 110.325 124.679 110.541C124.452 110.745 124.265 110.994 124.118 111.289C123.982 111.583 123.914 111.918 123.914 112.292V116.763H122.724ZM133.383 110.524L132.805 110.014C133.02 109.81 133.207 109.6 133.366 109.385C133.536 109.158 133.666 108.943 133.757 108.739C133.859 108.535 133.91 108.365 133.91 108.229C133.91 108.104 133.865 107.996 133.774 107.906C133.695 107.804 133.593 107.707 133.468 107.617C133.355 107.526 133.253 107.424 133.162 107.311C133.083 107.197 133.043 107.067 133.043 106.92C133.043 106.636 133.134 106.398 133.315 106.206C133.508 106.013 133.751 105.917 134.046 105.917C134.341 105.917 134.607 106.047 134.845 106.308C135.083 106.568 135.202 106.908 135.202 107.328C135.202 107.622 135.134 107.94 134.998 108.28C134.862 108.62 134.658 108.977 134.386 109.351C134.125 109.713 133.791 110.104 133.383 110.524ZM143.583 116.882C143.084 116.882 142.676 116.797 142.359 116.627C142.042 116.457 141.798 116.196 141.628 115.845C141.458 115.482 141.345 115.029 141.288 114.485C141.243 113.941 141.231 113.295 141.254 112.547L141.458 107.005L142.733 106.852L142.903 106.835L142.92 106.954C142.863 107.033 142.812 107.112 142.767 107.192C142.733 107.271 142.705 107.407 142.682 107.6L142.529 109.521L142.58 109.827L142.461 112.632C142.427 113.493 142.45 114.162 142.529 114.638C142.608 115.102 142.75 115.425 142.954 115.607C143.158 115.777 143.43 115.862 143.77 115.862C144.144 115.862 144.473 115.788 144.756 115.641C145.051 115.493 145.357 115.306 145.674 115.08L146.048 116.049C145.663 116.332 145.266 116.542 144.858 116.678C144.45 116.814 144.025 116.882 143.583 116.882ZM139.69 108.994H145.283V109.997H139.69V108.994ZM156.843 116.763V115.777H159.138V106.444H156.945V105.458H160.379V115.777H162.657V116.763H156.843ZM165.7 116.763V115.777H167.689V109.98H165.802V108.994H168.913V115.777H170.732V116.763H165.7ZM168.233 107.362C167.995 107.362 167.791 107.277 167.621 107.107C167.451 106.937 167.366 106.733 167.366 106.495C167.366 106.245 167.445 106.036 167.604 105.866C167.774 105.696 167.984 105.611 168.233 105.611C168.471 105.611 168.675 105.701 168.845 105.883C169.026 106.053 169.117 106.257 169.117 106.495C169.117 106.733 169.026 106.937 168.845 107.107C168.675 107.277 168.471 107.362 168.233 107.362ZM177.124 116.933C176.557 116.933 176.042 116.848 175.577 116.678C175.112 116.496 174.71 116.236 174.37 115.896C174.041 115.556 173.786 115.136 173.605 114.638C173.424 114.128 173.333 113.55 173.333 112.904C173.333 112.246 173.424 111.663 173.605 111.153C173.798 110.643 174.053 110.218 174.37 109.878C174.699 109.526 175.078 109.26 175.509 109.079C175.951 108.897 176.416 108.807 176.903 108.807C177.345 108.807 177.759 108.88 178.144 109.028C178.529 109.175 178.864 109.402 179.147 109.708C179.43 110.002 179.651 110.382 179.81 110.847C179.98 111.311 180.065 111.861 180.065 112.496C180.065 112.586 180.059 112.683 180.048 112.785C180.048 112.875 180.042 112.966 180.031 113.057H174.506C174.529 113.555 174.614 113.992 174.761 114.366C174.908 114.728 175.101 115.029 175.339 115.267C175.577 115.493 175.849 115.663 176.155 115.777C176.472 115.89 176.807 115.947 177.158 115.947C177.43 115.947 177.685 115.918 177.923 115.862C178.161 115.794 178.382 115.697 178.586 115.573C178.801 115.437 178.994 115.272 179.164 115.08L179.844 115.743C179.629 116.003 179.379 116.224 179.096 116.406C178.824 116.587 178.524 116.717 178.195 116.797C177.866 116.887 177.509 116.933 177.124 116.933ZM174.557 112.105H178.824C178.824 111.742 178.773 111.419 178.671 111.136C178.58 110.841 178.444 110.592 178.263 110.388C178.093 110.172 177.883 110.014 177.634 109.912C177.396 109.798 177.124 109.742 176.818 109.742C176.546 109.742 176.285 109.787 176.036 109.878C175.798 109.968 175.577 110.116 175.373 110.32C175.169 110.512 174.993 110.756 174.846 111.051C174.71 111.345 174.614 111.697 174.557 112.105ZM184.383 119.619L183.805 119.109C184.122 118.814 184.383 118.497 184.587 118.157C184.802 117.817 184.91 117.539 184.91 117.324C184.91 117.21 184.865 117.103 184.774 117.001C184.695 116.91 184.593 116.819 184.468 116.729C184.355 116.638 184.253 116.536 184.162 116.423C184.083 116.298 184.043 116.162 184.043 116.015C184.043 115.731 184.134 115.493 184.315 115.301C184.508 115.108 184.751 115.012 185.046 115.012C185.341 115.012 185.607 115.142 185.845 115.403C186.083 115.663 186.202 116.003 186.202 116.423C186.202 116.649 186.162 116.882 186.083 117.12C186.015 117.369 185.902 117.624 185.743 117.885C185.596 118.157 185.409 118.434 185.182 118.718C184.955 119.012 184.689 119.313 184.383 119.619ZM202.845 116.933C202.267 116.933 201.729 116.831 201.23 116.627C200.731 116.411 200.289 116.083 199.904 115.641C199.53 115.199 199.235 114.638 199.02 113.958C198.805 113.278 198.697 112.467 198.697 111.527C198.697 110.699 198.776 109.98 198.935 109.368C199.094 108.744 199.309 108.223 199.581 107.804C199.853 107.384 200.165 107.05 200.516 106.801C200.867 106.551 201.236 106.37 201.621 106.257C202.006 106.143 202.392 106.087 202.777 106.087C203.548 106.087 204.205 106.279 204.749 106.665C205.293 107.039 205.701 107.543 205.973 108.178L204.953 108.654L204.8 108.722L204.749 108.603C204.783 108.512 204.783 108.433 204.749 108.365C204.715 108.285 204.653 108.166 204.562 108.008C204.279 107.622 203.984 107.367 203.678 107.243C203.383 107.107 203.072 107.039 202.743 107.039C202.301 107.039 201.899 107.141 201.536 107.345C201.185 107.537 200.879 107.826 200.618 108.212C200.369 108.586 200.176 109.045 200.04 109.589C199.915 110.133 199.853 110.75 199.853 111.442C199.853 112.11 199.927 112.717 200.074 113.261C200.233 113.805 200.442 114.275 200.703 114.672C200.975 115.068 201.287 115.374 201.638 115.59C202.001 115.805 202.386 115.913 202.794 115.913C203.077 115.913 203.349 115.862 203.61 115.76C203.882 115.658 204.131 115.51 204.358 115.318C204.585 115.114 204.777 114.881 204.936 114.621L205.82 115.199C205.48 115.765 205.072 116.196 204.596 116.491C204.12 116.785 203.536 116.933 202.845 116.933ZM210.75 116.899C210.047 116.899 209.424 116.729 208.88 116.389C208.347 116.037 207.928 115.561 207.622 114.961C207.316 114.349 207.163 113.652 207.163 112.87C207.163 112.076 207.316 111.379 207.622 110.779C207.928 110.167 208.347 109.691 208.88 109.351C209.424 108.999 210.047 108.824 210.75 108.824C211.453 108.824 212.07 108.999 212.603 109.351C213.147 109.691 213.572 110.167 213.878 110.779C214.184 111.379 214.337 112.076 214.337 112.87C214.337 113.652 214.184 114.349 213.878 114.961C213.572 115.561 213.147 116.037 212.603 116.389C212.07 116.729 211.453 116.899 210.75 116.899ZM210.75 115.879C211.203 115.879 211.6 115.748 211.94 115.488C212.28 115.227 212.546 114.87 212.739 114.417C212.943 113.963 213.045 113.442 213.045 112.853C213.045 112.263 212.943 111.742 212.739 111.289C212.546 110.835 212.28 110.484 211.94 110.235C211.6 109.974 211.203 109.844 210.75 109.844C210.308 109.844 209.911 109.974 209.56 110.235C209.22 110.484 208.948 110.835 208.744 111.289C208.551 111.742 208.455 112.263 208.455 112.853C208.455 113.442 208.551 113.963 208.744 114.417C208.948 114.87 209.22 115.227 209.56 115.488C209.911 115.748 210.308 115.879 210.75 115.879ZM215.646 116.763V108.994H216.768V109.759C216.893 109.566 217.034 109.402 217.193 109.266C217.363 109.118 217.544 109.005 217.737 108.926C217.941 108.846 218.145 108.807 218.349 108.807C218.576 108.807 218.785 108.858 218.978 108.96C219.171 109.05 219.329 109.181 219.454 109.351C219.59 109.521 219.681 109.719 219.726 109.946C219.828 109.719 219.964 109.521 220.134 109.351C220.315 109.181 220.519 109.05 220.746 108.96C220.984 108.858 221.228 108.807 221.477 108.807C221.738 108.807 221.964 108.858 222.157 108.96C222.35 109.062 222.508 109.203 222.633 109.385C222.758 109.555 222.848 109.764 222.905 110.014C222.962 110.252 222.984 110.512 222.973 110.796V116.763H221.851V111.255C221.851 110.779 221.817 110.433 221.749 110.218C221.692 110.002 221.607 109.866 221.494 109.81C221.381 109.742 221.256 109.708 221.12 109.708C220.905 109.708 220.701 109.81 220.508 110.014C220.327 110.206 220.174 110.45 220.049 110.745C219.936 111.039 219.879 111.334 219.879 111.629V116.763H218.74V111.357C218.74 110.711 218.678 110.28 218.553 110.065C218.44 109.849 218.219 109.742 217.89 109.742C217.765 109.742 217.635 109.787 217.499 109.878C217.374 109.957 217.255 110.076 217.142 110.235C217.029 110.382 216.938 110.569 216.87 110.796C216.802 111.022 216.768 111.283 216.768 111.578V116.763H215.646ZM224.146 116.763V108.994H225.268V109.759C225.393 109.566 225.534 109.402 225.693 109.266C225.863 109.118 226.044 109.005 226.237 108.926C226.441 108.846 226.645 108.807 226.849 108.807C227.076 108.807 227.285 108.858 227.478 108.96C227.671 109.05 227.829 109.181 227.954 109.351C228.09 109.521 228.181 109.719 228.226 109.946C228.328 109.719 228.464 109.521 228.634 109.351C228.815 109.181 229.019 109.05 229.246 108.96C229.484 108.858 229.728 108.807 229.977 108.807C230.238 108.807 230.464 108.858 230.657 108.96C230.85 109.062 231.008 109.203 231.133 109.385C231.258 109.555 231.348 109.764 231.405 110.014C231.462 110.252 231.484 110.512 231.473 110.796V116.763H230.351V111.255C230.351 110.779 230.317 110.433 230.249 110.218C230.192 110.002 230.107 109.866 229.994 109.81C229.881 109.742 229.756 109.708 229.62 109.708C229.405 109.708 229.201 109.81 229.008 110.014C228.827 110.206 228.674 110.45 228.549 110.745C228.436 111.039 228.379 111.334 228.379 111.629V116.763H227.24V111.357C227.24 110.711 227.178 110.28 227.053 110.065C226.94 109.849 226.719 109.742 226.39 109.742C226.265 109.742 226.135 109.787 225.999 109.878C225.874 109.957 225.755 110.076 225.642 110.235C225.529 110.382 225.438 110.569 225.37 110.796C225.302 111.022 225.268 111.283 225.268 111.578V116.763H224.146ZM236.624 116.933C236.057 116.933 235.542 116.848 235.077 116.678C234.612 116.496 234.21 116.236 233.87 115.896C233.541 115.556 233.286 115.136 233.105 114.638C232.924 114.128 232.833 113.55 232.833 112.904C232.833 112.246 232.924 111.663 233.105 111.153C233.298 110.643 233.553 110.218 233.87 109.878C234.199 109.526 234.578 109.26 235.009 109.079C235.451 108.897 235.916 108.807 236.403 108.807C236.845 108.807 237.259 108.88 237.644 109.028C238.029 109.175 238.364 109.402 238.647 109.708C238.93 110.002 239.151 110.382 239.31 110.847C239.48 111.311 239.565 111.861 239.565 112.496C239.565 112.586 239.559 112.683 239.548 112.785C239.548 112.875 239.542 112.966 239.531 113.057H234.006C234.029 113.555 234.114 113.992 234.261 114.366C234.408 114.728 234.601 115.029 234.839 115.267C235.077 115.493 235.349 115.663 235.655 115.777C235.972 115.89 236.307 115.947 236.658 115.947C236.93 115.947 237.185 115.918 237.423 115.862C237.661 115.794 237.882 115.697 238.086 115.573C238.301 115.437 238.494 115.272 238.664 115.08L239.344 115.743C239.129 116.003 238.879 116.224 238.596 116.406C238.324 116.587 238.024 116.717 237.695 116.797C237.366 116.887 237.009 116.933 236.624 116.933ZM234.057 112.105H238.324C238.324 111.742 238.273 111.419 238.171 111.136C238.08 110.841 237.944 110.592 237.763 110.388C237.593 110.172 237.383 110.014 237.134 109.912C236.896 109.798 236.624 109.742 236.318 109.742C236.046 109.742 235.785 109.787 235.536 109.878C235.298 109.968 235.077 110.116 234.873 110.32C234.669 110.512 234.493 110.756 234.346 111.051C234.21 111.345 234.114 111.697 234.057 112.105ZM241.724 116.763V108.994H242.914V110.371C243.118 110.053 243.356 109.781 243.628 109.555C243.9 109.317 244.2 109.135 244.529 109.011C244.858 108.875 245.198 108.807 245.549 108.807C245.98 108.807 246.365 108.914 246.705 109.13C247.045 109.345 247.317 109.691 247.521 110.167C247.725 110.643 247.827 111.272 247.827 112.054V116.763H246.637V112.088C246.637 111.544 246.575 111.113 246.45 110.796C246.325 110.467 246.155 110.235 245.94 110.099C245.725 109.951 245.481 109.878 245.209 109.878C244.948 109.878 244.682 109.934 244.41 110.048C244.149 110.161 243.906 110.325 243.679 110.541C243.452 110.745 243.265 110.994 243.118 111.289C242.982 111.583 242.914 111.918 242.914 112.292V116.763H241.724ZM254.083 116.882C253.584 116.882 253.176 116.797 252.859 116.627C252.542 116.457 252.298 116.196 252.128 115.845C251.958 115.482 251.845 115.029 251.788 114.485C251.743 113.941 251.731 113.295 251.754 112.547L251.958 107.005L253.233 106.852L253.403 106.835L253.42 106.954C253.363 107.033 253.312 107.112 253.267 107.192C253.233 107.271 253.205 107.407 253.182 107.6L253.029 109.521L253.08 109.827L252.961 112.632C252.927 113.493 252.95 114.162 253.029 114.638C253.108 115.102 253.25 115.425 253.454 115.607C253.658 115.777 253.93 115.862 254.27 115.862C254.644 115.862 254.973 115.788 255.256 115.641C255.551 115.493 255.857 115.306 256.174 115.08L256.548 116.049C256.163 116.332 255.766 116.542 255.358 116.678C254.95 116.814 254.525 116.882 254.083 116.882ZM250.19 108.994H255.783V109.997H250.19V108.994ZM261.767 116.933C261.336 116.933 260.923 116.887 260.526 116.797C260.141 116.706 259.772 116.57 259.421 116.389C259.081 116.207 258.764 115.981 258.469 115.709L259.149 114.553L259.251 114.4L259.353 114.468C259.376 114.558 259.398 114.655 259.421 114.757C259.455 114.847 259.534 114.961 259.659 115.097C259.897 115.335 260.18 115.533 260.509 115.692C260.849 115.839 261.28 115.913 261.801 115.913C262.22 115.913 262.572 115.862 262.855 115.76C263.15 115.658 263.376 115.516 263.535 115.335C263.694 115.142 263.773 114.921 263.773 114.672C263.773 114.502 263.739 114.354 263.671 114.23C263.603 114.094 263.49 113.969 263.331 113.856C263.184 113.742 262.985 113.629 262.736 113.516C262.487 113.402 262.181 113.289 261.818 113.176C261.229 113.006 260.713 112.807 260.271 112.581C259.829 112.354 259.489 112.093 259.251 111.799C259.013 111.493 258.894 111.147 258.894 110.762C258.894 110.365 259.002 110.025 259.217 109.742C259.432 109.447 259.75 109.22 260.169 109.062C260.6 108.892 261.127 108.807 261.75 108.807C262.113 108.807 262.441 108.835 262.736 108.892C263.031 108.937 263.303 109.011 263.552 109.113C263.801 109.215 264.028 109.345 264.232 109.504C264.447 109.651 264.651 109.827 264.844 110.031L264.147 110.881L264.028 111.017L263.943 110.932C263.932 110.841 263.903 110.756 263.858 110.677C263.824 110.586 263.745 110.478 263.62 110.354C263.359 110.15 263.065 109.997 262.736 109.895C262.407 109.781 262.09 109.725 261.784 109.725C261.331 109.725 260.94 109.804 260.611 109.963C260.282 110.121 260.118 110.365 260.118 110.694C260.118 110.864 260.175 111.034 260.288 111.204C260.413 111.362 260.634 111.527 260.951 111.697C261.268 111.855 261.722 112.02 262.311 112.19C262.957 112.394 263.473 112.603 263.858 112.819C264.255 113.023 264.538 113.261 264.708 113.533C264.889 113.805 264.98 114.128 264.98 114.502C264.98 114.932 264.861 115.335 264.623 115.709C264.396 116.083 264.045 116.383 263.569 116.61C263.093 116.825 262.492 116.933 261.767 116.933ZM66.845 134.95C66.2783 134.95 65.757 134.848 65.281 134.644C64.805 134.44 64.3913 134.156 64.04 133.794C63.7 133.431 63.4337 133.006 63.241 132.519C63.0483 132.02 62.952 131.476 62.952 130.887C62.952 130.309 63.0483 129.776 63.241 129.289C63.4337 128.79 63.7 128.359 64.04 127.997C64.3913 127.634 64.805 127.351 65.281 127.147C65.757 126.943 66.2727 126.841 66.828 126.841C67.4627 126.841 68.0293 126.971 68.528 127.232C69.038 127.481 69.4517 127.832 69.769 128.286L69.004 129.034L68.885 129.153L68.8 129.068C68.8 128.977 68.7773 128.892 68.732 128.813C68.698 128.733 68.613 128.626 68.477 128.49C68.2277 128.263 67.9613 128.104 67.678 128.014C67.3947 127.923 67.066 127.878 66.692 127.878C66.3633 127.878 66.0517 127.946 65.757 128.082C65.4623 128.218 65.196 128.416 64.958 128.677C64.7313 128.926 64.55 129.232 64.414 129.595C64.278 129.957 64.21 130.36 64.21 130.802C64.21 131.244 64.278 131.652 64.414 132.026C64.55 132.388 64.737 132.706 64.975 132.978C65.213 133.25 65.4963 133.465 65.825 133.624C66.165 133.771 66.5277 133.845 66.913 133.845C67.1737 133.845 67.423 133.811 67.661 133.743C67.899 133.663 68.1257 133.556 68.341 133.42C68.5563 133.272 68.7547 133.097 68.936 132.893L69.65 133.726C69.2647 134.134 68.834 134.44 68.358 134.644C67.8933 134.848 67.389 134.95 66.845 134.95ZM74.087 134.95C73.203 134.95 72.523 134.751 72.047 134.355C71.571 133.947 71.333 133.431 71.333 132.808C71.333 132.388 71.435 132.014 71.639 131.686C71.843 131.346 72.1207 131.062 72.472 130.836C72.8347 130.598 73.254 130.416 73.73 130.292C74.206 130.167 74.7103 130.105 75.243 130.105C75.4357 130.105 75.6283 130.11 75.821 130.122C76.025 130.122 76.2347 130.133 76.45 130.156C76.6767 130.167 76.909 130.19 77.147 130.224L77.181 131.159C76.977 131.125 76.7673 131.102 76.552 131.091C76.348 131.068 76.144 131.051 75.94 131.04C75.736 131.028 75.5377 131.023 75.345 131.023C74.937 131.023 74.563 131.057 74.223 131.125C73.883 131.193 73.5883 131.295 73.339 131.431C73.0897 131.567 72.897 131.742 72.761 131.958C72.625 132.173 72.557 132.434 72.557 132.74C72.557 132.978 72.5967 133.182 72.676 133.352C72.7667 133.51 72.8857 133.641 73.033 133.743C73.1803 133.833 73.3503 133.901 73.543 133.947C73.747 133.992 73.968 134.015 74.206 134.015C74.648 134.015 75.039 133.947 75.379 133.811C75.7303 133.663 76.025 133.454 76.263 133.182C76.5123 132.91 76.6993 132.575 76.824 132.179C76.9487 131.782 77.011 131.329 77.011 130.819C77.011 130.048 76.9203 129.447 76.739 129.017C76.5577 128.586 76.2857 128.28 75.923 128.099C75.5717 127.917 75.1183 127.827 74.563 127.827C74.189 127.827 73.8207 127.9 73.458 128.048C73.0953 128.184 72.7667 128.399 72.472 128.694L71.877 127.912C72.2397 127.549 72.659 127.277 73.135 127.096C73.611 126.914 74.1153 126.824 74.648 126.824C75.158 126.824 75.6227 126.886 76.042 127.011C76.4613 127.135 76.8183 127.345 77.113 127.64C77.419 127.923 77.6513 128.308 77.81 128.796C77.98 129.283 78.065 129.895 78.065 130.632V134.763H76.739V133.573C76.5917 133.856 76.4103 134.088 76.195 134.27C75.991 134.451 75.77 134.593 75.532 134.695C75.294 134.785 75.0503 134.848 74.801 134.882C74.5517 134.927 74.3137 134.95 74.087 134.95ZM80.224 134.763V126.994H81.414V128.371C81.618 128.053 81.856 127.781 82.128 127.555C82.4 127.317 82.7003 127.135 83.029 127.011C83.3577 126.875 83.6977 126.807 84.049 126.807C84.4797 126.807 84.865 126.914 85.205 127.13C85.545 127.345 85.817 127.691 86.021 128.167C86.225 128.643 86.327 129.272 86.327 130.054V134.763H85.137V130.088C85.137 129.544 85.0747 129.113 84.95 128.796C84.8253 128.467 84.6553 128.235 84.44 128.099C84.2247 127.951 83.981 127.878 83.709 127.878C83.4483 127.878 83.182 127.934 82.91 128.048C82.6493 128.161 82.4057 128.325 82.179 128.541C81.9523 128.745 81.7653 128.994 81.618 129.289C81.482 129.583 81.414 129.918 81.414 130.292V134.763H80.224Z" fill="white" fill-opacity="0.76"/>
<g clip-path="url(#clip0_71_48)">
<path d="M432 87.0769C432 87.6184 432.45 88.0615 433 88.0615H434V91.5077C434 92.3249 434.67 92.9846 435.5 92.9846C436.33 92.9846 437 92.3249 437 91.5077V88.0615H439V91.5077C439 92.3249 439.67 92.9846 440.5 92.9846C441.33 92.9846 442 92.3249 442 91.5077V88.0615H443C443.55 88.0615 444 87.6184 444 87.0769V77.2307H432V87.0769ZM429.5 77.2307C428.67 77.2307 428 77.8904 428 78.7077V85.6C428 86.4172 428.67 87.0769 429.5 87.0769C430.33 87.0769 431 86.4172 431 85.6V78.7077C431 77.8904 430.33 77.2307 429.5 77.2307ZM446.5 77.2307C445.67 77.2307 445 77.8904 445 78.7077V85.6C445 86.4172 445.67 87.0769 446.5 87.0769C447.33 87.0769 448 86.4172 448 85.6V78.7077C448 77.8904 447.33 77.2307 446.5 77.2307ZM441.53 71.4806L442.83 70.2006C443.03 70.0037 443.03 69.6984 442.83 69.5015C442.63 69.3046 442.32 69.3046 442.12 69.5015L440.64 70.9587C439.85 70.5649 438.95 70.3384 438 70.3384C437.04 70.3384 436.14 70.5649 435.34 70.9587L433.85 69.5015C433.65 69.3046 433.34 69.3046 433.14 69.5015C432.94 69.6984 432.94 70.0037 433.14 70.2006L434.45 71.4904C432.97 72.5637 432 74.2867 432 76.2461H444C444 74.2867 443.03 72.5538 441.53 71.4806ZM436 74.2769H435V73.2923H436V74.2769ZM441 74.2769H440V73.2923H441V74.2769Z" fill="white"/>
</g>
<defs>
<filter id="filter0_dd_71_48" x="0" y="0" width="532" height="196" filterUnits="userSpaceOnUse" color-interpolation-filters="sRGB">
<feFlood flood-opacity="0" result="BackgroundImageFix"/>
<feColorMatrix in="SourceAlpha" type="matrix" values="0 0 0 0 0 0 0 0 0 0 0 0 0 0 0 0 0 0 127 0" result="hardAlpha"/>
<feOffset dx="10" dy="10"/>
<feGaussianBlur stdDeviation="15"/>
<feColorMatrix type="matrix" values="0 0 0 0 0 0 0 0 0 0.0188393 0 0 0 0 0.0412109 0 0 0 1 0"/>
<feBlend mode="normal" in2="BackgroundImageFix" result="effect1_dropShadow_71_48"/>
<feColorMatrix in="SourceAlpha" type="matrix" values="0 0 0 0 0 0 0 0 0 0 0 0 0 0 0 0 0 0 127 0" result="hardAlpha"/>
<feMorphology radius="10" operator="dilate" in="SourceAlpha" result="effect2_dropShadow_71_48"/>
<feOffset/>
<feGaussianBlur stdDeviation="9"/>
<feColorMatrix type="matrix" values="0 0 0 0 0.0666319 0 0 0 0 0.748663 0 0 0 0 0.841667 0 0 0 1 0"/>
<feBlend mode="normal" in2="effect1_dropShadow_71_48" result="effect2_dropShadow_71_48"/>
<feBlend mode="normal" in="SourceGraphic" in2="effect2_dropShadow_71_48" result="shape"/>
</filter>
<clipPath id="clip0_71_48">
<rect width="24" height="23.6308" fill="white" transform="translate(426 69.3538)"/>
</clipPath>
</defs>
</svg>
