<svg xmlns="http://www.w3.org/2000/svg" enable-background="new 0 0 24 24" viewBox="0 2.87 24 18.25"><path fill="#FFFFFF" d="M22.062 21.125h-2.875c-1.068 0-1.938-.869-1.938-1.938V12c0-1.068.869-1.938 1.938-1.938h2.875C23.131 10.062 24 10.932 24 12v7.188C24 20.256 23.131 21.125 22.062 21.125zM19.188 11.062c-.517 0-.938.42-.938.938v7.188c0 .517.42.938.938.938h2.875c.517 0 .938-.42.938-.938V12c0-.517-.42-.938-.938-.938H19.188zM13.438 21.125h-2.875c-1.068 0-1.938-.869-1.938-1.938V4.812c0-1.068.869-1.938 1.938-1.938h2.875c1.068 0 1.938.869 1.938 1.938v14.375C15.375 20.256 14.506 21.125 13.438 21.125zM10.562 3.875c-.517 0-.938.42-.938.938v14.375c0 .517.42.938.938.938h2.875c.517 0 .938-.42.938-.938V4.812c0-.517-.42-.938-.938-.938H10.562zM4.812 21.125H1.938C.869 21.125 0 20.256 0 19.188V9.125c0-1.068.869-1.938 1.938-1.938h2.875c1.068 0 1.938.869 1.938 1.938v10.062C6.75 20.256 5.881 21.125 4.812 21.125zM1.938 8.188C1.42 8.188 1 8.608 1 9.125v10.062c0 .517.42.938.938.938h2.875c.517 0 .938-.42.938-.938V9.125c0-.517-.42-.938-.938-.938H1.938z"/></svg>